<svg xmlns="http://www.w3.org/2000/svg" xmlns:v="https://svgstorm.com"
viewBox = "0 0 500 507"
width="500"
height="507">
<g fill="None" fill-opacity="0.0" stroke="#FDFEFE" stroke-opacity="1.00" stroke-width="0.3"><path d="
M 0.00 426.00 
C 3.20 420.00 10.78 418.12 17.00 421.00
C 22.65 423.61 25.52 431.17 31.00 434.00
C 35.99 428.09 46.87 420.89 51.25 414.25 C 55.62 407.60 71.12 400.63 67.74 393.26 C 64.37 385.89 52.28 380.46 47.75 373.25 C 43.23 366.04 28.07 359.95 33.00 350.00
C 33.37 349.08 33.61 347.83 34.00 347.00
C 40.72 332.83 54.99 343.40 61.00 352.00
C 61.40 352.20 62.00 352.00 62.00 352.00
C 66.11 342.83 78.96 335.90 85.75 327.75 C 92.54 319.60 101.97 310.86 110.00 304.00
C 119.71 295.71 127.59 283.97 138.00 278.00
C 136.37 286.58 139.04 297.99 140.78 305.22 C 142.51 312.45 129.23 315.66 127.00 321.00
C 131.31 331.68 154.58 340.31 144.00 353.00
C 140.89 355.80 138.18 356.49 134.00 355.00
C 125.72 352.05 120.65 341.18 114.00 336.00
C 102.43 343.48 96.86 353.46 85.75 362.75 C 74.64 372.04 92.71 382.65 100.75 391.25 C 108.80 399.84 119.75 411.07 129.00 418.00
C 131.34 412.39 137.95 409.65 141.75 404.75 C 145.56 399.85 150.89 396.10 155.25 391.25 C 159.60 386.39 163.94 382.79 168.75 377.75 C 173.56 372.71 176.16 370.43 181.75 364.75 C 187.35 359.07 188.21 358.30 195.25 351.25 C 202.29 344.20 203.00 352.57 203.00 362.00
C 203.00 362.50 203.02 363.50 203.00 364.00
C 206.38 373.69 205.17 377.84 197.25 384.25 C 189.33 390.66 186.20 395.56 180.25 401.25 C 174.30 406.94 167.48 412.68 163.25 418.25 C 159.02 423.81 146.08 430.29 147.00 437.00
C 150.27 444.60 165.70 454.08 153.75 462.75 C 141.80 471.42 135.00 458.13 127.25 451.75 C 119.49 445.37 114.06 436.91 106.25 430.75 C 98.44 424.59 91.21 440.13 84.25 445.25 C 77.29 450.37 70.33 460.97 63.00 466.00
C 67.14 474.52 86.58 484.63 76.25 495.25 C 65.92 505.86 55.99 489.90 48.25 482.75 C 40.50 475.60 32.12 466.40 24.25 458.75 C 16.38 451.10 7.24 441.96 0.00 434.00
L 0.00 507.00
L 500.00 507.00
L 500.00 0.00
L 496.00 0.00
C 501.48 12.15 486.56 20.65 478.25 29.25 C 469.94 37.84 462.15 46.48 452.75 54.75 C 443.35 63.03 432.86 73.28 436.00 85.00 C 439.14 96.72 409.30 106.04 426.25 111.75 C 443.19 117.47 440.86 132.58 442.00 147.00
C 442.29 147.73 442.86 147.82 443.00 149.00
C 447.86 160.93 443.75 176.69 445.00 190.00 C 446.25 203.31 444.75 218.74 443.00 231.00
C 442.72 244.82 440.07 259.23 437.00 272.00
C 433.51 296.96 425.73 322.20 416.00 345.00
C 405.11 370.53 392.37 394.71 374.00 416.00
C 360.84 431.24 346.26 444.74 332.00 459.00
C 323.76 467.24 313.43 475.60 303.00 480.00
C 295.91 485.12 289.41 488.14 281.77 492.77 C 274.13 497.40 266.27 499.63 257.92 503.92 C 249.58 508.21 238.38 501.79 230.92 498.08 C 223.46 494.37 216.13 490.28 208.77 486.23 C 201.41 482.18 194.69 477.23 187.77 472.23 C 180.85 467.23 171.08 463.24 172.00 453.00 C 172.92 442.76 162.20 438.17 170.25 429.25 C 178.30 420.33 181.50 419.80 188.75 427.25 C 196.00 434.70 201.51 436.43 208.75 442.25 C 215.98 448.08 221.84 452.56 230.00 456.00
C 244.64 462.17 258.19 466.13 271.68 455.68 C 285.17 445.23 293.34 441.23 306.00 432.00
C 307.85 430.28 310.12 428.60 312.00 427.00
C 333.30 405.70 350.82 383.57 368.00 360.00
C 372.57 350.75 377.49 341.19 382.00 332.00
C 382.04 331.50 381.83 330.43 382.00 330.00
C 382.83 327.89 383.32 326.12 384.00 324.00
C 385.29 319.97 387.82 315.49 389.00 312.00
C 390.28 306.23 392.14 301.24 394.00 296.00
C 398.76 274.87 405.00 252.24 405.00 230.00
C 403.82 214.67 405.86 196.47 405.00 180.00
C 397.59 182.08 395.08 189.40 388.30 194.30 C 381.52 199.20 378.50 204.57 371.75 209.75 C 365.01 214.94 363.17 220.16 356.23 226.23 C 349.29 232.30 343.29 222.34 332.00 225.00 C 320.71 227.66 325.73 216.89 333.25 212.25 C 340.77 207.60 342.70 202.04 350.00 197.00
C 350.20 196.60 350.00 196.00 350.00 196.00
C 352.16 190.41 360.85 184.10 365.75 179.75 C 370.66 175.40 377.26 167.55 383.00 164.00
C 383.32 163.80 383.89 163.35 384.00 163.00
C 385.29 158.73 390.28 157.08 392.75 152.75 C 395.22 148.43 397.07 141.46 396.00 136.00
C 392.35 125.19 381.64 120.46 374.75 111.25 C 367.86 102.03 352.77 95.98 343.77 104.77 C 334.77 113.56 329.04 119.99 320.00 128.00
C 324.41 137.29 348.47 147.78 338.75 159.75 C 329.03 171.71 313.76 148.18 307.00 142.00
C 298.89 144.35 295.82 155.76 288.25 159.25 C 280.68 162.73 266.08 157.18 257.00 158.00
C 264.14 149.89 271.55 143.03 279.25 135.25 C 286.94 127.47 294.76 121.39 301.75 112.75 C 308.74 104.12 317.40 98.70 324.75 89.75 C 332.10 80.81 344.57 76.08 356.00 76.00 C 367.43 75.92 379.90 86.87 388.25 79.25 C 396.59 71.63 404.13 58.20 416.00 61.00 C 427.87 63.80 433.10 52.79 441.25 45.25 C 449.41 37.71 455.86 30.30 463.75 22.75 C 471.64 15.20 480.03 8.45 487.00 0.00
L 0.00 0.00
L 0.00 426.00
M 312.00 73.00 
C 314.53 73.74 316.73 74.38 319.00 76.00
C 314.73 83.32 308.65 89.41 302.75 93.76 C 296.86 98.10 290.27 112.85 281.00 103.00
C 271.47 99.53 258.66 92.03 248.33 93.33 C 238.00 94.63 226.00 100.67 216.00 104.00
C 211.99 105.83 208.51 106.87 204.00 108.00
C 191.11 115.71 173.91 117.33 159.78 122.78 C 145.64 128.22 128.90 133.86 114.00 137.00
C 110.93 138.05 107.47 140.04 104.00 141.00
C 103.54 141.13 102.49 140.95 102.00 141.00
C 98.04 142.68 97.69 147.72 97.00 151.00
C 96.61 155.15 96.00 159.51 96.00 164.00
C 96.00 166.00 96.00 168.00 96.00 170.00
C 96.00 185.67 96.00 201.33 96.00 217.00
C 96.00 217.50 96.00 218.50 96.00 219.00
C 96.00 232.22 98.30 248.78 100.00 261.00 C 101.70 273.22 109.77 286.72 100.25 295.25 C 90.72 303.78 86.03 311.45 76.00 318.00
C 75.70 316.75 74.17 316.29 74.00 315.00
C 71.70 310.63 71.16 303.82 70.00 299.00
C 68.53 294.54 67.65 289.63 67.00 285.00
C 55.70 242.70 58.00 197.21 58.00 152.00
C 58.00 140.47 57.46 116.92 70.00 112.00
C 81.08 107.65 92.85 105.54 104.00 101.00
C 126.01 92.04 150.18 86.06 173.02 79.02 C 195.87 71.99 218.55 62.59 241.67 56.67 C 264.80 50.76 289.76 66.52 312.00 73.00
M 283.00 181.00 
C 285.34 190.06 281.78 200.65 283.00 210.00 C 284.22 219.35 282.09 229.57 283.00 239.00
C 292.12 240.08 305.87 237.50 315.01 239.99 C 324.14 242.49 340.71 235.20 346.75 243.25 C 352.79 251.30 348.08 266.59 349.00 276.00 C 349.92 285.41 352.13 301.04 342.00 304.00
C 340.49 309.37 329.46 305.05 324.00 306.00 C 318.54 306.95 308.19 305.63 302.00 306.00 C 295.81 306.37 288.83 305.55 284.00 308.00
C 285.29 326.04 282.28 337.28 284.00 356.00 C 285.72 374.72 263.78 371.01 250.00 371.00 C 236.22 370.99 215.40 374.55 217.00 356.00 C 218.60 337.45 215.80 324.99 217.00 307.00
C 217.00 306.50 217.23 305.16 217.00 305.00
C 216.61 304.79 216.00 305.00 216.00 305.00
C 206.99 305.00 196.90 305.72 188.00 305.00 C 179.10 304.28 167.75 307.29 160.00 304.00
C 159.50 304.00 158.50 304.03 158.00 304.00
C 148.84 303.46 151.60 284.07 152.00 276.00 C 152.40 267.93 149.37 251.80 153.75 243.75 C 158.14 235.71 173.50 238.98 182.00 238.00 C 190.50 237.02 206.22 242.62 214.22 238.22 C 222.22 233.82 214.04 214.30 217.00 207.00 C 219.96 199.70 211.46 179.53 221.00 176.00
C 222.05 175.61 223.14 175.37 224.00 175.00
C 231.96 171.59 247.15 174.40 256.00 174.00 C 264.85 173.60 281.42 170.43 283.00 181.00 Z"/>
</g>
<g fill="None" fill-opacity="0.0" stroke="#5AAB8B" stroke-opacity="1.00" stroke-width="0.3"><path d="
M 396.00 136.00 
C 397.41 140.18 397.37 145.48 396.00 150.00
C 394.01 156.56 387.31 162.74 381.77 166.77 C 376.23 170.80 372.15 178.99 366.00 182.00
C 365.60 182.20 365.00 182.00 365.00 182.00
C 353.99 197.76 337.11 208.72 326.00 224.00
C 334.35 226.86 345.59 221.50 353.00 228.00
C 361.31 219.26 370.44 209.42 379.25 201.25 C 388.06 193.07 396.88 181.11 406.00 177.00
C 409.01 176.86 408.05 186.92 408.00 191.00 C 407.95 195.08 408.27 202.17 408.00 208.00 C 407.73 213.83 408.68 217.32 408.00 225.00 C 407.32 232.68 404.07 245.55 410.08 249.92 C 416.09 254.28 412.29 253.63 412.00 259.00
C 409.59 254.61 410.28 260.52 407.00 255.00
C 404.57 256.74 403.94 264.23 406.00 268.00
C 407.64 265.36 405.92 261.14 408.00 259.00
C 414.48 262.50 408.30 267.49 411.00 272.00
C 409.99 267.35 418.29 265.89 414.00 263.00
C 418.78 259.94 427.77 260.76 426.00 266.00
C 431.31 263.11 431.10 268.30 434.00 270.00
C 436.25 267.74 435.31 263.31 438.00 261.00
C 442.24 224.07 445.03 185.24 442.00 147.00
C 440.86 132.58 443.19 117.47 426.25 111.75 C 409.30 106.04 439.14 96.72 436.00 85.00 C 432.86 73.28 443.35 63.03 452.75 54.75 C 462.15 46.48 469.94 37.84 478.25 29.25 C 486.56 20.65 501.48 12.15 496.00 0.00
L 487.00 0.00
C 480.03 8.45 471.64 15.20 463.75 22.75 C 455.86 30.30 449.41 37.71 441.25 45.25 C 433.10 52.79 427.87 63.80 416.00 61.00 C 404.13 58.20 396.59 71.63 388.25 79.25 C 379.90 86.87 367.43 75.92 356.00 76.00 C 344.57 76.08 332.10 80.81 324.75 89.75 C 317.40 98.70 308.74 104.12 301.75 112.75 C 294.76 121.39 286.94 127.47 279.25 135.25 C 271.55 143.03 264.14 149.89 257.00 158.00
C 266.08 157.18 280.68 162.73 288.25 159.25 C 295.82 155.76 298.89 144.35 307.00 142.00
C 313.76 148.18 329.03 171.71 338.75 159.75 C 348.47 147.78 324.41 137.29 320.00 128.00
C 329.04 119.99 334.77 113.56 343.77 104.77 C 352.77 95.98 367.86 102.03 374.75 111.25 C 381.64 120.46 392.35 125.19 396.00 136.00 Z"/>
</g>
<g fill="None" fill-opacity="0.0" stroke="#ADCFC7" stroke-opacity="1.00" stroke-width="0.3"><path d="
M 104.00 101.00 
C 112.68 98.82 121.57 97.11 130.00 94.00
C 142.57 89.36 156.08 84.50 169.00 81.00
C 185.63 76.49 202.28 71.23 218.69 65.69 C 235.11 60.16 251.48 51.29 267.74 60.26 C 284.01 69.22 299.94 67.98 316.00 77.00
C 312.99 82.88 306.81 86.68 303.00 92.00
C 308.40 87.38 322.80 77.61 312.00 73.00
C 289.76 66.52 264.80 50.76 241.67 56.67 C 218.55 62.59 195.87 71.99 173.02 79.02 C 150.18 86.06 126.01 92.04 104.00 101.00 Z"/>
</g>
<g fill="None" fill-opacity="0.0" stroke="#54A58F" stroke-opacity="1.00" stroke-width="0.3"><path d="
M 169.00 81.00 
C 167.65 81.09 176.08 84.04 179.00 83.00
C 178.16 86.18 182.48 86.67 182.00 90.00
C 170.36 85.39 187.46 97.65 181.00 102.00
C 186.48 102.89 182.44 96.29 184.00 94.00
C 188.11 98.06 185.00 101.81 188.76 106.25 C 192.51 110.69 198.89 106.79 204.00 107.00
C 208.22 106.53 212.01 105.33 216.00 104.00
C 226.00 100.67 238.00 94.63 248.33 93.33 C 258.66 92.03 271.47 99.53 281.00 103.00
C 291.55 106.85 295.31 98.57 303.00 92.00
C 306.81 86.68 312.99 82.88 316.00 77.00
C 299.94 67.98 284.01 69.22 267.74 60.26 C 251.48 51.29 235.11 60.16 218.69 65.69 C 202.28 71.23 185.63 76.49 169.00 81.00 Z"/>
</g>
<g fill="None" fill-opacity="0.0" stroke="#E1F6EE" stroke-opacity="1.00" stroke-width="0.3"><path d="
M 303.00 92.00 
C 295.31 98.57 291.55 106.85 281.00 103.00
C 290.27 112.85 296.86 98.10 302.75 93.76 C 308.65 89.41 314.73 83.32 319.00 76.00
C 316.73 74.38 314.53 73.74 312.00 73.00
C 322.80 77.61 308.40 87.38 303.00 92.00 Z"/>
</g>
<g fill="None" fill-opacity="0.0" stroke="#4A9694" stroke-opacity="1.00" stroke-width="0.3"><path d="
M 130.00 94.00 
C 116.52 100.81 100.04 101.96 87.00 109.00
C 92.23 107.23 97.58 106.09 103.00 105.00
C 99.45 107.51 108.25 107.49 101.00 110.00
C 105.71 110.98 109.78 110.73 114.00 112.00
C 110.31 110.99 107.01 114.32 108.00 118.00
C 115.11 117.41 110.63 125.62 112.00 130.00
C 108.65 125.61 107.17 131.95 103.00 131.00
C 106.61 132.50 108.87 130.42 107.00 136.00
C 102.62 134.25 100.92 139.45 97.00 139.00
C 96.99 140.63 98.28 141.51 97.00 143.00
C 97.59 141.93 100.91 141.12 102.00 141.00
C 102.49 140.95 103.54 141.13 104.00 141.00
C 107.21 138.42 109.81 137.88 114.00 137.00
C 128.90 133.86 145.64 128.22 159.78 122.78 C 173.91 117.33 191.11 115.71 204.00 108.00
C 204.22 107.87 204.00 107.00 204.00 107.00
C 198.89 106.79 192.51 110.69 188.76 106.25 C 185.00 101.81 188.11 98.06 184.00 94.00
C 182.44 96.29 186.48 102.89 181.00 102.00
C 187.46 97.65 170.36 85.39 182.00 90.00
C 182.48 86.67 178.16 86.18 179.00 83.00
C 176.08 84.04 167.65 81.09 169.00 81.00
C 156.08 84.50 142.57 89.36 130.00 94.00 Z"/>
</g>
<g fill="None" fill-opacity="0.0" stroke="#78A5AA" stroke-opacity="1.00" stroke-width="0.3"><path d="
M 104.00 101.00 
C 92.85 105.54 81.08 107.65 70.00 112.00
C 58.73 118.62 59.00 140.66 59.00 152.00
C 59.00 156.27 59.40 160.75 59.00 165.00
C 61.76 151.89 62.23 141.90 63.98 127.98 C 65.72 114.05 76.17 114.84 87.00 109.00
C 100.04 101.96 116.52 100.81 130.00 94.00
C 121.57 97.11 112.68 98.82 104.00 101.00 Z"/>
</g>
<g fill="None" fill-opacity="0.0" stroke="#A7CDC7" stroke-opacity="1.00" stroke-width="0.3"><path d="
M 204.00 107.00 
C 204.00 107.00 204.22 107.87 204.00 108.00
C 208.51 106.87 211.99 105.83 216.00 104.00
C 212.01 105.33 208.22 106.53 204.00 107.00 Z"/>
</g>
<g fill="None" fill-opacity="0.0" stroke="#448A99" stroke-opacity="1.00" stroke-width="0.3"><path d="
M 87.00 109.00 
C 76.17 114.84 65.72 114.05 63.98 127.98 C 62.23 141.90 61.76 151.89 59.00 165.00
C 56.45 192.17 56.54 224.07 62.00 250.00
C 60.17 230.48 59.57 211.75 59.00 192.00
C 57.09 200.93 74.36 209.89 64.00 216.00
C 69.79 218.47 63.86 219.03 63.00 221.00
C 64.90 222.22 67.55 223.51 70.00 224.00
C 69.05 219.13 73.71 220.79 76.00 218.00
C 80.48 222.91 83.32 227.09 89.00 230.00
C 89.60 226.74 88.17 224.09 88.00 221.00
C 90.84 222.30 88.91 226.48 91.00 228.00
C 90.42 224.24 93.99 222.20 95.00 219.00
C 90.87 211.15 95.69 199.71 94.00 191.00 C 92.31 182.29 95.06 171.77 96.00 164.00
C 96.00 159.51 96.61 155.15 97.00 151.00
C 97.25 148.36 96.77 145.65 97.00 143.00
C 98.28 141.51 96.99 140.63 97.00 139.00
C 100.92 139.45 102.62 134.25 107.00 136.00
C 108.87 130.42 106.61 132.50 103.00 131.00
C 107.17 131.95 108.65 125.61 112.00 130.00
C 110.63 125.62 115.11 117.41 108.00 118.00
C 107.01 114.32 110.31 110.99 114.00 112.00
C 109.78 110.73 105.71 110.98 101.00 110.00
C 108.25 107.49 99.45 107.51 103.00 105.00
C 97.58 106.09 92.23 107.23 87.00 109.00 Z"/>
</g>
<g fill="None" fill-opacity="0.0" stroke="#CCE1E6" stroke-opacity="1.00" stroke-width="0.3"><path d="
M 58.00 152.00 
C 58.00 151.96 59.00 152.00 59.00 152.00
C 59.00 140.66 58.73 118.62 70.00 112.00
C 57.46 116.92 58.00 140.47 58.00 152.00 Z"/>
</g>
<g fill="None" fill-opacity="0.0" stroke="#DDF5E9" stroke-opacity="1.00" stroke-width="0.3"><path d="
M 384.00 163.00 
C 388.14 159.77 394.19 154.67 396.00 150.00
C 397.37 145.48 397.41 140.18 396.00 136.00
C 397.07 141.46 395.22 148.43 392.75 152.75 C 390.28 157.08 385.29 158.73 384.00 163.00 Z"/>
</g>
<g fill="None" fill-opacity="0.0" stroke="#99B7BC" stroke-opacity="1.00" stroke-width="0.3"><path d="
M 104.00 141.00 
C 107.47 140.04 110.93 138.05 114.00 137.00
C 109.81 137.88 107.21 138.42 104.00 141.00 Z"/>
</g>
<g fill="None" fill-opacity="0.0" stroke="#C0E1E3" stroke-opacity="1.00" stroke-width="0.3"><path d="
M 97.00 143.00 
C 96.77 145.65 97.25 148.36 97.00 151.00
C 97.69 147.72 98.04 142.68 102.00 141.00
C 100.91 141.12 97.59 141.93 97.00 143.00 Z"/>
</g>
<g fill="None" fill-opacity="0.0" stroke="#A1CAB8" stroke-opacity="1.00" stroke-width="0.3"><path d="
M 438.00 261.00 
C 437.57 264.74 437.53 268.23 437.00 272.00
C 440.07 259.23 442.72 244.82 443.00 231.00
C 443.53 204.31 446.28 175.64 443.00 149.00
C 442.86 147.82 442.29 147.73 442.00 147.00
C 445.03 185.24 442.24 224.07 438.00 261.00 Z"/>
</g>
<g fill="None" fill-opacity="0.0" stroke="#DEF3E8" stroke-opacity="1.00" stroke-width="0.3"><path d="
M 443.00 231.00 
C 444.75 218.74 446.25 203.31 445.00 190.00 C 443.75 176.69 447.86 160.93 443.00 149.00
C 446.28 175.64 443.53 204.31 443.00 231.00 Z"/>
</g>
<g fill="None" fill-opacity="0.0" stroke="#8EBCA8" stroke-opacity="1.00" stroke-width="0.3"><path d="
M 384.00 163.00 
C 383.89 163.35 383.32 163.80 383.00 164.00
C 377.98 170.44 370.64 175.36 366.00 182.00
C 372.15 178.99 376.23 170.80 381.77 166.77 C 387.31 162.74 394.01 156.56 396.00 150.00
C 394.19 154.67 388.14 159.77 384.00 163.00 Z"/>
</g>
<g fill="None" fill-opacity="0.0" stroke="#98B5C2" stroke-opacity="1.00" stroke-width="0.3"><path d="
M 67.00 285.00 
C 65.36 273.29 63.10 261.75 62.00 250.00
C 56.54 224.07 56.45 192.17 59.00 165.00
C 59.40 160.75 59.00 156.27 59.00 152.00
C 59.00 152.00 58.00 151.96 58.00 152.00
C 58.00 197.21 55.70 242.70 67.00 285.00 Z"/>
</g>
<g fill="None" fill-opacity="0.0" stroke="#87ACB4" stroke-opacity="1.00" stroke-width="0.3"><path d="
M 95.00 219.00 
C 95.18 218.76 96.00 219.00 96.00 219.00
C 96.00 218.50 96.00 217.50 96.00 217.00
C 93.18 210.36 95.80 201.59 95.00 194.00 C 94.20 186.41 95.33 176.88 96.00 170.00
C 96.00 168.00 96.00 166.00 96.00 164.00
C 95.06 171.77 92.31 182.29 94.00 191.00 C 95.69 199.71 90.87 211.15 95.00 219.00 Z"/>
</g>
<g fill="None" fill-opacity="0.0" stroke="#CEEADF" stroke-opacity="1.00" stroke-width="0.3"><path d="
M 350.00 196.00 
C 355.35 192.26 359.21 184.83 365.00 182.00
C 365.00 182.00 365.60 182.20 366.00 182.00
C 370.64 175.36 377.98 170.44 383.00 164.00
C 377.26 167.55 370.66 175.40 365.75 179.75 C 360.85 184.10 352.16 190.41 350.00 196.00 Z"/>
</g>
<g fill="None" fill-opacity="0.0" stroke="#DCF6FB" stroke-opacity="1.00" stroke-width="0.3"><path d="
M 96.00 217.00 
C 96.00 201.33 96.00 185.67 96.00 170.00
C 95.33 176.88 94.20 186.41 95.00 194.00 C 95.80 201.59 93.18 210.36 96.00 217.00 Z"/>
</g>
<g fill="None" fill-opacity="0.0" stroke="#C1DBD7" stroke-opacity="1.00" stroke-width="0.3"><path d="
M 224.00 175.00 
C 231.75 173.30 247.62 175.02 255.00 175.00 C 262.38 174.98 279.05 171.62 282.00 179.00
C 282.05 179.13 283.02 181.07 283.00 181.00
C 281.42 170.43 264.85 173.60 256.00 174.00 C 247.15 174.40 231.96 171.59 224.00 175.00 Z"/>
</g>
<g fill="None" fill-opacity="0.0" stroke="#87B0AB" stroke-opacity="1.00" stroke-width="0.3"><path d="
M 221.00 176.00 
C 215.17 179.15 219.09 189.21 218.00 195.00 C 216.91 200.79 219.05 210.64 218.00 217.00 C 216.95 223.36 220.10 233.12 217.00 239.00
C 217.50 239.00 218.00 239.00 218.00 239.00
C 221.65 232.07 218.51 222.11 219.00 214.00 C 219.49 205.89 219.87 196.62 219.00 188.00 C 218.13 179.38 224.70 174.48 233.00 176.00 C 241.30 177.52 251.76 174.43 259.00 176.00 C 266.24 177.57 277.83 172.33 282.00 179.00
C 279.05 171.62 262.38 174.98 255.00 175.00 C 247.62 175.02 231.75 173.30 224.00 175.00
C 223.14 175.37 222.05 175.61 221.00 176.00 Z"/>
</g>
<g fill="None" fill-opacity="0.0" stroke="#D0E2E4" stroke-opacity="1.00" stroke-width="0.3"><path d="
M 158.00 304.00 
C 156.89 303.35 155.83 300.93 155.00 300.00
C 154.77 299.74 154.22 299.30 154.00 299.00
C 150.83 294.70 153.54 286.73 153.00 281.00 C 152.46 275.27 152.88 266.95 153.00 261.00
C 153.16 252.90 152.60 239.55 164.00 240.00
C 170.29 238.70 181.90 237.41 188.00 240.00
C 188.50 240.00 189.50 240.00 190.00 240.00
C 198.08 240.00 208.51 241.65 216.00 239.00
C 216.44 238.84 217.00 239.00 217.00 239.00
C 220.10 233.12 216.95 223.36 218.00 217.00 C 219.05 210.64 216.91 200.79 218.00 195.00 C 219.09 189.21 215.17 179.15 221.00 176.00
C 211.46 179.53 219.96 199.70 217.00 207.00 C 214.04 214.30 222.22 233.82 214.22 238.22 C 206.22 242.62 190.50 237.02 182.00 238.00 C 173.50 238.98 158.14 235.71 153.75 243.75 C 149.37 251.80 152.40 267.93 152.00 276.00 C 151.60 284.07 148.84 303.46 158.00 304.00 Z"/>
</g>
<g fill="None" fill-opacity="0.0" stroke="#4A9893" stroke-opacity="1.00" stroke-width="0.3"><path d="
M 218.00 239.00 
C 220.30 240.79 221.71 232.18 224.00 229.00
C 222.20 235.52 224.03 243.74 232.00 244.00
C 230.95 247.58 235.32 248.20 232.00 251.00
C 237.63 251.36 242.36 254.93 240.00 261.00
C 245.31 263.88 249.35 265.03 256.00 266.00
C 254.55 276.65 271.67 267.19 272.00 276.00
C 269.02 275.08 267.43 277.19 266.00 279.00
C 267.73 281.20 269.70 283.58 271.00 286.00
C 273.15 284.29 270.55 281.14 270.00 279.00
C 277.68 278.97 271.03 288.64 276.00 288.00
C 274.28 290.62 271.37 287.35 269.00 288.00
C 269.65 296.29 276.64 289.30 281.10 292.91 C 285.56 296.51 290.49 293.93 296.00 296.00
C 294.23 298.03 290.52 296.53 288.00 297.00
C 287.93 299.41 288.44 301.95 287.00 304.00
C 304.43 301.91 323.43 304.00 341.00 304.00
C 341.50 304.00 342.00 304.00 342.00 304.00
C 352.13 301.04 349.92 285.41 349.00 276.00 C 348.08 266.59 352.79 251.30 346.75 243.25 C 340.71 235.20 324.14 242.49 315.01 239.99 C 305.87 237.50 292.12 240.08 283.00 239.00
C 282.09 229.57 284.22 219.35 283.00 210.00 C 281.78 200.65 285.34 190.06 283.00 181.00
C 283.02 181.07 282.05 179.13 282.00 179.00
C 277.83 172.33 266.24 177.57 259.00 176.00 C 251.76 174.43 241.30 177.52 233.00 176.00 C 224.70 174.48 218.13 179.38 219.00 188.00 C 219.87 196.62 219.49 205.89 219.00 214.00 C 218.51 222.11 221.65 232.07 218.00 239.00 Z"/>
</g>
<g fill="None" fill-opacity="0.0" stroke="#D0EAE2" stroke-opacity="1.00" stroke-width="0.3"><path d="
M 326.00 224.00 
C 322.94 222.95 333.51 214.76 336.25 211.25 C 338.98 207.73 347.85 201.40 350.00 197.00
C 342.70 202.04 340.77 207.60 333.25 212.25 C 325.73 216.89 320.71 227.66 332.00 225.00 C 343.29 222.34 349.29 232.30 356.23 226.23 C 363.17 220.16 365.01 214.94 371.75 209.75 C 378.50 204.57 381.52 199.20 388.30 194.30 C 395.08 189.40 397.59 182.08 405.00 180.00
C 405.86 196.47 403.82 214.67 405.00 230.00
C 405.00 229.02 404.92 227.98 405.00 227.00
C 406.31 211.38 406.00 195.00 406.00 179.00
C 406.00 178.50 406.23 177.35 406.00 177.00
C 396.88 181.11 388.06 193.07 379.25 201.25 C 370.44 209.42 361.31 219.26 353.00 228.00
C 345.59 221.50 334.35 226.86 326.00 224.00 Z"/>
</g>
<g fill="None" fill-opacity="0.0" stroke="#55A290" stroke-opacity="1.00" stroke-width="0.3"><path d="
M 406.00 179.00 
C 408.87 185.74 406.43 195.27 407.00 203.00 C 407.57 210.73 407.73 220.66 405.00 227.00
C 404.92 227.98 405.00 229.02 405.00 230.00
C 405.00 252.24 398.76 274.87 394.00 296.00
C 391.37 307.70 389.52 320.60 382.00 330.00
C 381.83 330.43 382.04 331.50 382.00 332.00
C 381.91 333.29 381.41 333.82 381.00 335.00
C 382.97 330.89 387.62 327.24 388.00 322.00
C 389.88 324.41 388.52 328.74 391.00 324.00
C 393.87 326.91 397.68 330.05 396.00 336.00
C 396.29 332.18 400.91 330.28 400.00 336.00
C 405.35 334.79 405.00 344.64 410.00 340.00
C 408.76 343.04 408.29 343.30 410.00 346.00
C 405.66 346.55 409.48 350.43 406.00 352.00
C 411.23 353.14 410.25 347.98 412.00 345.00
C 413.87 347.78 415.10 343.33 416.00 345.00
C 425.73 322.20 433.51 296.96 437.00 272.00
C 437.53 268.23 437.57 264.74 438.00 261.00
C 435.31 263.31 436.25 267.74 434.00 270.00
C 431.10 268.30 431.31 263.11 426.00 266.00
C 427.77 260.76 418.78 259.94 414.00 263.00
C 418.29 265.89 409.99 267.35 411.00 272.00
C 408.30 267.49 414.48 262.50 408.00 259.00
C 405.92 261.14 407.64 265.36 406.00 268.00
C 403.94 264.23 404.57 256.74 407.00 255.00
C 410.28 260.52 409.59 254.61 412.00 259.00
C 412.29 253.63 416.09 254.28 410.08 249.92 C 404.07 245.55 407.32 232.68 408.00 225.00 C 408.68 217.32 407.73 213.83 408.00 208.00 C 408.27 202.17 407.95 195.08 408.00 191.00 C 408.05 186.92 409.01 176.86 406.00 177.00
C 406.23 177.35 406.00 178.50 406.00 179.00 Z"/>
</g>
<g fill="None" fill-opacity="0.0" stroke="#A3CCBB" stroke-opacity="1.00" stroke-width="0.3"><path d="
M 405.00 227.00 
C 407.73 220.66 407.57 210.73 407.00 203.00 C 406.43 195.27 408.87 185.74 406.00 179.00
C 406.00 195.00 406.31 211.38 405.00 227.00 Z"/>
</g>
<g fill="None" fill-opacity="0.0" stroke="#8BB9AC" stroke-opacity="1.00" stroke-width="0.3"><path d="
M 350.00 196.00 
C 350.00 196.00 350.20 196.60 350.00 197.00
C 347.85 201.40 338.98 207.73 336.25 211.25 C 333.51 214.76 322.94 222.95 326.00 224.00
C 337.11 208.72 353.99 197.76 365.00 182.00
C 359.21 184.83 355.35 192.26 350.00 196.00 Z"/>
</g>
<g fill="None" fill-opacity="0.0" stroke="#4582A0" stroke-opacity="1.00" stroke-width="0.3"><path d="
M 62.00 250.00 
C 63.10 261.75 65.36 273.29 67.00 285.00
C 67.65 289.63 68.53 294.54 70.00 299.00
C 70.75 301.27 71.33 304.87 72.97 307.03 C 74.62 309.18 73.60 313.92 74.00 315.00
C 74.17 316.29 75.70 316.75 76.00 318.00
C 86.03 311.45 90.72 303.78 100.25 295.25 C 109.77 286.72 101.70 273.22 100.00 261.00 C 98.30 248.78 96.00 232.22 96.00 219.00
C 96.00 219.00 95.18 218.76 95.00 219.00
C 93.99 222.20 90.42 224.24 91.00 228.00
C 88.91 226.48 90.84 222.30 88.00 221.00
C 88.17 224.09 89.60 226.74 89.00 230.00
C 83.32 227.09 80.48 222.91 76.00 218.00
C 73.71 220.79 69.05 219.13 70.00 224.00
C 67.55 223.51 64.90 222.22 63.00 221.00
C 63.86 219.03 69.79 218.47 64.00 216.00
C 74.36 209.89 57.09 200.93 59.00 192.00
C 59.57 211.75 60.17 230.48 62.00 250.00 Z"/>
</g>
<g fill="None" fill-opacity="0.0" stroke="#458A99" stroke-opacity="1.00" stroke-width="0.3"><path d="
M 218.00 239.00 
C 218.00 239.00 217.50 239.00 217.00 239.00
C 217.00 239.00 216.44 238.84 216.00 239.00
C 212.70 243.31 194.22 241.80 190.00 240.00
C 189.50 240.00 188.50 240.00 188.00 240.00
C 180.67 240.00 173.33 240.00 166.00 240.00
C 152.44 242.62 156.33 252.19 155.00 263.00 C 153.67 273.81 158.35 289.56 155.00 300.00
C 155.83 300.93 156.89 303.35 158.00 304.00
C 158.50 304.03 159.50 304.00 160.00 304.00
C 168.37 304.00 179.95 302.78 188.00 304.00 C 196.05 305.22 209.84 300.44 216.00 305.00
C 216.00 305.00 216.61 304.79 217.00 305.00
C 222.27 307.85 217.92 319.14 219.00 325.00 C 220.08 330.86 218.36 341.44 219.00 348.00 C 219.64 354.56 217.26 362.58 222.00 368.00
C 222.41 368.19 223.00 368.00 223.00 368.00
C 229.58 371.76 241.25 368.64 249.00 369.00 C 256.75 369.36 268.21 370.32 276.00 369.00
C 289.90 364.78 279.98 340.77 283.00 330.00 C 286.02 319.23 278.90 315.27 283.00 306.00
C 284.05 303.63 284.23 304.33 287.00 304.00
C 288.44 301.95 287.93 299.41 288.00 297.00
C 290.52 296.53 294.23 298.03 296.00 296.00
C 290.49 293.93 285.56 296.51 281.10 292.91 C 276.64 289.30 269.65 296.29 269.00 288.00
C 271.37 287.35 274.28 290.62 276.00 288.00
C 271.03 288.64 277.68 278.97 270.00 279.00
C 270.55 281.14 273.15 284.29 271.00 286.00
C 269.70 283.58 267.73 281.20 266.00 279.00
C 267.43 277.19 269.02 275.08 272.00 276.00
C 271.67 267.19 254.55 276.65 256.00 266.00
C 249.35 265.03 245.31 263.88 240.00 261.00
C 242.36 254.93 237.63 251.36 232.00 251.00
C 235.32 248.20 230.95 247.58 232.00 244.00
C 224.03 243.74 222.20 235.52 224.00 229.00
C 221.71 232.18 220.30 240.79 218.00 239.00 Z"/>
</g>
<g fill="None" fill-opacity="0.0" stroke="#9DAEAF" stroke-opacity="1.00" stroke-width="0.3"><path d="
M 164.00 240.00 
C 164.50 240.02 165.50 240.00 166.00 240.00
C 173.33 240.00 180.67 240.00 188.00 240.00
C 181.90 237.41 170.29 238.70 164.00 240.00 Z"/>
</g>
<g fill="None" fill-opacity="0.0" stroke="#7FB7BC" stroke-opacity="1.00" stroke-width="0.3"><path d="
M 190.00 240.00 
C 194.22 241.80 212.70 243.31 216.00 239.00
C 208.51 241.65 198.08 240.00 190.00 240.00 Z"/>
</g>
<g fill="None" fill-opacity="0.0" stroke="#6F9CAB" stroke-opacity="1.00" stroke-width="0.3"><path d="
M 153.00 261.00 
C 153.89 272.62 152.26 286.90 154.00 299.00
C 154.22 299.30 154.77 299.74 155.00 300.00
C 158.35 289.56 153.67 273.81 155.00 263.00 C 156.33 252.19 152.44 242.62 166.00 240.00
C 165.50 240.00 164.50 240.02 164.00 240.00
C 152.60 239.55 153.16 252.90 153.00 261.00 Z"/>
</g>
<g fill="None" fill-opacity="0.0" stroke="#A3BDC7" stroke-opacity="1.00" stroke-width="0.3"><path d="
M 154.00 299.00 
C 152.26 286.90 153.89 272.62 153.00 261.00
C 152.88 266.95 152.46 275.27 153.00 281.00 C 153.54 286.73 150.83 294.70 154.00 299.00 Z"/>
</g>
<g fill="None" fill-opacity="0.0" stroke="#94B2C0" stroke-opacity="1.00" stroke-width="0.3"><path d="
M 110.00 304.00 
C 102.35 311.65 94.77 321.57 86.25 328.25 C 77.73 334.93 71.60 347.30 62.00 352.00
C 62.00 352.00 61.40 352.20 61.00 352.00
C 57.00 350.04 54.95 344.93 51.00 343.00
C 53.33 346.33 58.71 353.27 63.00 353.00
C 67.88 351.96 68.04 345.35 73.75 342.75 C 79.46 340.15 76.27 336.22 83.75 331.75 C 91.23 327.28 97.89 315.91 105.08 311.08 C 112.27 306.26 110.69 304.93 115.25 300.25 C 119.82 295.58 121.68 293.66 126.25 290.25 C 130.81 286.83 131.40 281.46 137.00 280.00
C 134.77 288.13 138.82 299.46 139.92 306.08 C 141.02 312.70 127.84 315.91 126.00 321.00
C 130.57 331.92 151.20 339.60 144.00 353.00
C 154.58 340.31 131.31 331.68 127.00 321.00
C 129.23 315.66 142.51 312.45 140.78 305.22 C 139.04 297.99 136.37 286.58 138.00 278.00
C 127.59 283.97 119.71 295.71 110.00 304.00 Z"/>
</g>
<g fill="None" fill-opacity="0.0" stroke="#50889F" stroke-opacity="1.00" stroke-width="0.3"><path d="
M 63.00 353.00 
C 69.89 352.57 74.25 341.14 79.25 337.25 C 84.26 333.37 91.28 326.95 95.75 321.75 C 100.22 316.55 107.57 308.21 112.00 311.00
C 112.15 305.16 119.55 292.65 128.00 295.00
C 123.53 299.96 132.19 303.83 136.00 307.00
C 132.17 308.92 132.24 313.49 128.00 312.00
C 130.93 320.28 120.55 318.61 120.00 323.00
C 123.97 320.31 127.88 326.52 131.70 330.30 C 135.51 334.09 141.18 339.22 143.00 344.00
C 137.45 342.91 136.98 347.54 138.00 352.00
C 127.33 353.43 124.69 338.24 115.00 336.00
C 120.71 342.80 127.74 349.20 134.00 355.00
C 138.18 356.49 140.89 355.80 144.00 353.00
C 151.20 339.60 130.57 331.92 126.00 321.00
C 127.84 315.91 141.02 312.70 139.92 306.08 C 138.82 299.46 134.77 288.13 137.00 280.00
C 131.40 281.46 130.81 286.83 126.25 290.25 C 121.68 293.66 119.82 295.58 115.25 300.25 C 110.69 304.93 112.27 306.26 105.08 311.08 C 97.89 315.91 91.23 327.28 83.75 331.75 C 76.27 336.22 79.46 340.15 73.75 342.75 C 68.04 345.35 67.88 351.96 63.00 353.00 Z"/>
</g>
<g fill="None" fill-opacity="0.0" stroke="#417DA3" stroke-opacity="1.00" stroke-width="0.3"><path d="
M 63.00 353.00 
C 58.71 353.27 53.33 346.33 51.00 343.00
C 50.60 342.80 50.00 343.00 50.00 343.00
C 43.37 340.12 30.44 348.24 34.33 355.67 C 38.22 363.10 43.76 366.25 49.25 372.75 C 54.75 379.24 57.19 382.89 65.08 387.92 C 72.97 392.95 69.73 402.22 62.75 405.75 C 55.77 409.29 53.71 419.61 47.75 421.75 C 41.80 423.90 35.28 437.97 31.00 435.00
C 30.52 435.09 30.00 435.00 30.00 435.00
C 26.47 433.27 23.43 428.85 21.00 426.00
C 19.96 424.79 18.28 421.71 17.00 421.00
C 10.78 418.12 3.20 420.00 0.00 426.00
L 0.00 434.00
C 7.24 441.96 16.38 451.10 24.25 458.75 C 32.12 466.40 40.50 475.60 48.25 482.75 C 55.99 489.90 65.92 505.86 76.25 495.25 C 86.58 484.63 67.14 474.52 63.00 466.00
C 70.33 460.97 77.29 450.37 84.25 445.25 C 91.21 440.13 98.44 424.59 106.25 430.75 C 114.06 436.91 119.49 445.37 127.25 451.75 C 135.00 458.13 141.80 471.42 153.75 462.75 C 165.70 454.08 150.27 444.60 147.00 437.00
C 146.23 435.22 146.06 435.10 147.00 433.00
C 150.07 426.14 158.78 421.54 163.75 415.75 C 168.72 409.96 175.61 403.39 181.00 398.00
C 180.88 398.24 184.15 390.78 188.00 389.00
C 186.97 386.50 185.18 388.32 184.00 386.00
C 188.43 385.26 191.86 380.42 195.00 383.00
C 196.61 380.10 198.24 378.39 197.00 375.00
C 207.71 374.82 199.44 365.25 200.00 359.00
C 195.79 360.75 195.86 359.97 192.00 358.00
C 191.29 360.61 188.00 362.60 188.00 366.00
C 194.56 362.82 186.62 369.92 183.00 368.00
C 185.03 372.46 179.45 373.05 184.00 376.00
C 171.65 372.19 165.78 386.75 156.75 393.75 C 147.73 400.76 140.96 411.66 131.00 418.00
C 130.56 418.16 130.00 418.00 130.00 418.00
C 129.50 418.00 129.00 418.00 129.00 418.00
C 119.75 411.07 108.80 399.84 100.75 391.25 C 92.71 382.65 74.64 372.04 85.75 362.75 C 96.86 353.46 102.43 343.48 114.00 336.00
C 120.65 341.18 125.72 352.05 134.00 355.00
C 127.74 349.20 120.71 342.80 115.00 336.00
C 124.69 338.24 127.33 353.43 138.00 352.00
C 136.98 347.54 137.45 342.91 143.00 344.00
C 141.18 339.22 135.51 334.09 131.70 330.30 C 127.88 326.52 123.97 320.31 120.00 323.00
C 120.55 318.61 130.93 320.28 128.00 312.00
C 132.24 313.49 132.17 308.92 136.00 307.00
C 132.19 303.83 123.53 299.96 128.00 295.00
C 119.55 292.65 112.15 305.16 112.00 311.00
C 107.57 308.21 100.22 316.55 95.75 321.75 C 91.28 326.95 84.26 333.37 79.25 337.25 C 74.25 341.14 69.89 352.57 63.00 353.00 Z"/>
</g>
<g fill="None" fill-opacity="0.0" stroke="#99BFB9" stroke-opacity="1.00" stroke-width="0.3"><path d="
M 389.00 312.00 
C 388.01 316.48 385.73 320.12 384.00 324.00
C 383.32 326.12 382.83 327.89 382.00 330.00
C 389.52 320.60 391.37 307.70 394.00 296.00
C 392.14 301.24 390.28 306.23 389.00 312.00 Z"/>
</g>
<g fill="None" fill-opacity="0.0" stroke="#A1BECB" stroke-opacity="1.00" stroke-width="0.3"><path d="
M 74.00 315.00 
C 73.60 313.92 74.62 309.18 72.97 307.03 C 71.33 304.87 70.75 301.27 70.00 299.00
C 71.16 303.82 71.70 310.63 74.00 315.00 Z"/>
</g>
<g fill="None" fill-opacity="0.0" stroke="#D2E2EC" stroke-opacity="1.00" stroke-width="0.3"><path d="
M 62.00 352.00 
C 71.60 347.30 77.73 334.93 86.25 328.25 C 94.77 321.57 102.35 311.65 110.00 304.00
C 101.97 310.86 92.54 319.60 85.75 327.75 C 78.96 335.90 66.11 342.83 62.00 352.00 Z"/>
</g>
<g fill="None" fill-opacity="0.0" stroke="#94A7AA" stroke-opacity="1.00" stroke-width="0.3"><path d="
M 216.00 305.00 
C 209.84 300.44 196.05 305.22 188.00 304.00 C 179.95 302.78 168.37 304.00 160.00 304.00
C 167.75 307.29 179.10 304.28 188.00 305.00 C 196.90 305.72 206.99 305.00 216.00 305.00 Z"/>
</g>
<g fill="None" fill-opacity="0.0" stroke="#98B1AF" stroke-opacity="1.00" stroke-width="0.3"><path d="
M 283.00 306.00 
C 285.98 301.78 297.07 306.50 302.00 305.00 C 306.93 303.50 316.58 306.24 322.00 305.00 C 327.42 303.76 336.59 307.26 341.00 304.00
C 323.43 304.00 304.43 301.91 287.00 304.00
C 284.23 304.33 284.05 303.63 283.00 306.00 Z"/>
</g>
<g fill="None" fill-opacity="0.0" stroke="#D6E9EE" stroke-opacity="1.00" stroke-width="0.3"><path d="
M 283.00 306.00 
C 278.90 315.27 286.02 319.23 283.00 330.00 C 279.98 340.77 289.90 364.78 276.00 369.00
C 271.34 370.42 264.33 370.34 259.00 370.00 C 253.67 369.66 244.88 370.80 240.00 370.00 C 235.12 369.20 225.15 372.71 223.00 368.00
C 223.00 368.00 222.41 368.19 222.00 368.00
C 212.96 363.91 219.98 347.34 218.00 339.00 C 216.02 330.66 220.41 315.02 217.00 307.00
C 215.80 324.99 218.60 337.45 217.00 356.00 C 215.40 374.55 236.22 370.99 250.00 371.00 C 263.78 371.01 285.72 374.72 284.00 356.00 C 282.28 337.28 285.29 326.04 284.00 308.00
C 288.83 305.55 295.81 306.37 302.00 306.00 C 308.19 305.63 318.54 306.95 324.00 306.00 C 329.46 305.05 340.49 309.37 342.00 304.00
C 342.00 304.00 341.50 304.00 341.00 304.00
C 336.59 307.26 327.42 303.76 322.00 305.00 C 316.58 306.24 306.93 303.50 302.00 305.00 C 297.07 306.50 285.98 301.78 283.00 306.00 Z"/>
</g>
<g fill="None" fill-opacity="0.0" stroke="#80A4B1" stroke-opacity="1.00" stroke-width="0.3"><path d="
M 217.00 307.00 
C 220.41 315.02 216.02 330.66 218.00 339.00 C 219.98 347.34 212.96 363.91 222.00 368.00
C 217.26 362.58 219.64 354.56 219.00 348.00 C 218.36 341.44 220.08 330.86 219.00 325.00 C 217.92 319.14 222.27 307.85 217.00 305.00
C 217.23 305.16 217.00 306.50 217.00 307.00 Z"/>
</g>
<g fill="None" fill-opacity="0.0" stroke="#CEE6E3" stroke-opacity="1.00" stroke-width="0.3"><path d="
M 384.00 324.00 
C 385.73 320.12 388.01 316.48 389.00 312.00
C 387.82 315.49 385.29 319.97 384.00 324.00 Z"/>
</g>
<g fill="None" fill-opacity="0.0" stroke="#4C9593" stroke-opacity="1.00" stroke-width="0.3"><path d="
M 381.00 335.00 
C 375.64 350.44 366.84 364.93 359.00 379.00
C 361.00 378.07 365.35 379.76 365.00 374.00
C 371.36 373.87 370.83 384.85 376.00 380.00
C 376.00 384.67 376.00 389.33 376.00 394.00
C 373.18 393.94 372.91 398.04 370.00 398.00
C 369.67 392.35 372.22 380.20 364.00 382.00
C 367.67 385.67 363.06 394.78 360.00 400.00
C 367.19 397.58 366.71 402.40 374.00 400.00
C 371.23 403.40 365.50 406.80 369.00 412.00
C 370.40 409.70 372.13 405.24 376.00 406.00
C 370.34 409.84 373.41 412.72 369.00 417.00
C 370.76 417.05 372.07 415.47 374.00 416.00
C 392.37 394.71 405.11 370.53 416.00 345.00
C 415.10 343.33 413.87 347.78 412.00 345.00
C 410.25 347.98 411.23 353.14 406.00 352.00
C 409.48 350.43 405.66 346.55 410.00 346.00
C 408.29 343.30 408.76 343.04 410.00 340.00
C 405.00 344.64 405.35 334.79 400.00 336.00
C 400.91 330.28 396.29 332.18 396.00 336.00
C 397.68 330.05 393.87 326.91 391.00 324.00
C 388.52 328.74 389.88 324.41 388.00 322.00
C 387.62 327.24 382.97 330.89 381.00 335.00 Z"/>
</g>
<g fill="None" fill-opacity="0.0" stroke="#89AFB6" stroke-opacity="1.00" stroke-width="0.3"><path d="
M 368.00 360.00 
C 355.62 385.03 333.70 408.46 312.00 427.00
C 310.12 428.60 307.85 430.28 306.00 432.00
C 294.33 442.90 285.82 445.37 272.75 455.75 C 259.69 466.13 247.70 465.61 233.00 458.00
C 240.93 463.37 249.34 469.43 258.25 464.25 C 267.15 459.06 274.09 456.63 282.23 451.23 C 290.37 445.83 296.26 439.41 305.00 436.00
C 311.81 431.03 316.64 422.46 323.75 417.75 C 330.86 413.04 336.99 405.67 341.92 398.92 C 346.85 392.16 355.08 386.03 359.00 379.00
C 366.84 364.93 375.64 350.44 381.00 335.00
C 381.41 333.82 381.91 333.29 382.00 332.00
C 377.49 341.19 372.57 350.75 368.00 360.00 Z"/>
</g>
<g fill="None" fill-opacity="0.0" stroke="#CDE0EA" stroke-opacity="1.00" stroke-width="0.3"><path d="
M 34.00 347.00 
C 36.63 342.82 46.60 338.55 50.00 343.00
C 50.00 343.00 50.60 342.80 51.00 343.00
C 54.95 344.93 57.00 350.04 61.00 352.00
C 54.99 343.40 40.72 332.83 34.00 347.00 Z"/>
</g>
<g fill="None" fill-opacity="0.0" stroke="#7498AF" stroke-opacity="1.00" stroke-width="0.3"><path d="
M 34.00 347.00 
C 33.61 347.83 33.37 349.08 33.00 350.00
C 31.46 357.84 38.95 362.85 43.25 367.75 C 47.54 372.65 53.86 376.91 57.25 381.75 C 60.64 386.60 70.82 391.01 70.00 397.00
C 69.34 401.81 60.88 405.05 58.70 409.70 C 56.52 414.34 49.55 418.35 45.77 421.77 C 41.99 425.19 37.43 431.30 33.00 434.00
C 32.36 434.39 31.75 434.86 31.00 435.00
C 35.28 437.97 41.80 423.90 47.75 421.75 C 53.71 419.61 55.77 409.29 62.75 405.75 C 69.73 402.22 72.97 392.95 65.08 387.92 C 57.19 382.89 54.75 379.24 49.25 372.75 C 43.76 366.25 38.22 363.10 34.33 355.67 C 30.44 348.24 43.37 340.12 50.00 343.00
C 46.60 338.55 36.63 342.82 34.00 347.00 Z"/>
</g>
<g fill="None" fill-opacity="0.0" stroke="#C1D8E1" stroke-opacity="1.00" stroke-width="0.3"><path d="
M 129.00 418.00 
C 129.00 418.00 129.50 418.00 130.00 418.00
C 137.63 407.09 149.41 398.35 158.75 388.75 C 168.09 379.15 178.13 367.59 189.00 360.00
C 189.20 359.60 189.00 359.00 189.00 359.00
C 190.30 356.34 199.97 346.82 202.00 350.00
C 203.62 352.54 201.80 359.17 203.00 362.00
C 203.00 352.57 202.29 344.20 195.25 351.25 C 188.21 358.30 187.35 359.07 181.75 364.75 C 176.16 370.43 173.56 372.71 168.75 377.75 C 163.94 382.79 159.60 386.39 155.25 391.25 C 150.89 396.10 145.56 399.85 141.75 404.75 C 137.95 409.65 131.34 412.39 129.00 418.00 Z"/>
</g>
<g fill="None" fill-opacity="0.0" stroke="#8BADB7" stroke-opacity="1.00" stroke-width="0.3"><path d="
M 189.00 359.00 
C 193.33 355.97 196.77 350.80 202.00 350.00
C 199.97 346.82 190.30 356.34 189.00 359.00 Z"/>
</g>
<g fill="None" fill-opacity="0.0" stroke="#CADFEB" stroke-opacity="1.00" stroke-width="0.3"><path d="
M 17.00 421.00 
C 18.28 421.71 19.96 424.79 21.00 426.00
C 23.98 428.98 27.57 431.52 30.00 435.00
C 30.00 435.00 30.52 435.09 31.00 435.00
C 31.75 434.86 32.36 434.39 33.00 434.00
C 36.82 430.43 41.20 425.60 44.75 421.75 C 48.30 417.91 54.64 413.46 57.25 409.25 C 59.85 405.03 69.11 401.17 70.00 397.00
C 70.82 391.01 60.64 386.60 57.25 381.75 C 53.86 376.91 47.54 372.65 43.25 367.75 C 38.95 362.85 31.46 357.84 33.00 350.00
C 28.07 359.95 43.23 366.04 47.75 373.25 C 52.28 380.46 64.37 385.89 67.74 393.26 C 71.12 400.63 55.62 407.60 51.25 414.25 C 46.87 420.89 35.99 428.09 31.00 434.00
C 25.52 431.17 22.65 423.61 17.00 421.00 Z"/>
</g>
<g fill="None" fill-opacity="0.0" stroke="#51889E" stroke-opacity="1.00" stroke-width="0.3"><path d="
M 189.00 359.00 
C 189.00 359.00 189.20 359.60 189.00 360.00
C 183.26 371.73 167.80 378.53 160.25 389.25 C 152.70 399.97 138.48 407.30 131.00 418.00
C 140.96 411.66 147.73 400.76 156.75 393.75 C 165.78 386.75 171.65 372.19 184.00 376.00
C 179.45 373.05 185.03 372.46 183.00 368.00
C 186.62 369.92 194.56 362.82 188.00 366.00
C 188.00 362.60 191.29 360.61 192.00 358.00
C 195.86 359.97 195.79 360.75 200.00 359.00
C 199.44 365.25 207.71 374.82 197.00 375.00
C 198.24 378.39 196.61 380.10 195.00 383.00
C 191.86 380.42 188.43 385.26 184.00 386.00
C 185.18 388.32 186.97 386.50 188.00 389.00
C 184.15 390.78 180.88 398.24 181.00 398.00
C 184.86 394.14 190.45 390.12 193.75 385.75 C 197.06 381.39 204.84 377.77 205.00 372.00
C 204.49 369.09 202.87 367.23 203.00 364.00
C 203.02 363.50 203.00 362.50 203.00 362.00
C 201.80 359.17 203.62 352.54 202.00 350.00
C 196.77 350.80 193.33 355.97 189.00 359.00 Z"/>
</g>
<g fill="None" fill-opacity="0.0" stroke="#83A7B8" stroke-opacity="1.00" stroke-width="0.3"><path d="
M 130.00 418.00 
C 130.00 418.00 130.56 418.16 131.00 418.00
C 138.48 407.30 152.70 399.97 160.25 389.25 C 167.80 378.53 183.26 371.73 189.00 360.00
C 178.13 367.59 168.09 379.15 158.75 388.75 C 149.41 398.35 137.63 407.09 130.00 418.00 Z"/>
</g>
<g fill="None" fill-opacity="0.0" stroke="#D5E7EB" stroke-opacity="1.00" stroke-width="0.3"><path d="
M 312.00 427.00 
C 333.70 408.46 355.62 385.03 368.00 360.00
C 350.82 383.57 333.30 405.70 312.00 427.00 Z"/>
</g>
<g fill="None" fill-opacity="0.0" stroke="#CBE2ED" stroke-opacity="1.00" stroke-width="0.3"><path d="
M 205.00 372.00 
C 206.34 379.57 192.36 385.77 187.75 392.75 C 183.14 399.74 172.60 405.45 167.75 412.75 C 162.91 420.06 151.11 425.50 147.00 433.00
C 146.06 435.10 146.23 435.22 147.00 437.00
C 146.08 430.29 159.02 423.81 163.25 418.25 C 167.48 412.68 174.30 406.94 180.25 401.25 C 186.20 395.56 189.33 390.66 197.25 384.25 C 205.17 377.84 206.38 373.69 203.00 364.00
C 202.87 367.23 204.49 369.09 205.00 372.00 Z"/>
</g>
<g fill="None" fill-opacity="0.0" stroke="#84A6B1" stroke-opacity="1.00" stroke-width="0.3"><path d="
M 276.00 369.00 
C 268.21 370.32 256.75 369.36 249.00 369.00 C 241.25 368.64 229.58 371.76 223.00 368.00
C 225.15 372.71 235.12 369.20 240.00 370.00 C 244.88 370.80 253.67 369.66 259.00 370.00 C 264.33 370.34 271.34 370.42 276.00 369.00 Z"/>
</g>
<g fill="None" fill-opacity="0.0" stroke="#7B9BAC" stroke-opacity="1.00" stroke-width="0.3"><path d="
M 181.00 398.00 
C 175.61 403.39 168.72 409.96 163.75 415.75 C 158.78 421.54 150.07 426.14 147.00 433.00
C 151.11 425.50 162.91 420.06 167.75 412.75 C 172.60 405.45 183.14 399.74 187.75 392.75 C 192.36 385.77 206.34 379.57 205.00 372.00
C 204.84 377.77 197.06 381.39 193.75 385.75 C 190.45 390.12 184.86 394.14 181.00 398.00 Z"/>
</g>
<g fill="None" fill-opacity="0.0" stroke="#488C97" stroke-opacity="1.00" stroke-width="0.3"><path d="
M 359.00 379.00 
C 355.08 386.03 346.85 392.16 341.92 398.92 C 336.99 405.67 330.86 413.04 323.75 417.75 C 316.64 422.46 311.81 431.03 305.00 436.00
C 309.28 434.33 311.50 435.54 313.00 431.00
C 314.42 433.60 311.07 438.67 316.00 438.00
C 317.56 441.08 311.73 443.39 317.00 443.00
C 313.15 447.47 321.30 451.84 321.00 457.00
C 321.79 455.01 320.29 451.87 323.00 452.00
C 322.35 457.30 324.12 454.43 327.00 453.00
C 325.93 455.33 326.22 457.08 328.00 459.00
C 322.62 463.18 319.86 465.29 315.00 471.00
C 320.70 467.05 326.51 463.08 332.00 459.00
C 346.26 444.74 360.84 431.24 374.00 416.00
C 372.07 415.47 370.76 417.05 369.00 417.00
C 373.41 412.72 370.34 409.84 376.00 406.00
C 372.13 405.24 370.40 409.70 369.00 412.00
C 365.50 406.80 371.23 403.40 374.00 400.00
C 366.71 402.40 367.19 397.58 360.00 400.00
C 363.06 394.78 367.67 385.67 364.00 382.00
C 372.22 380.20 369.67 392.35 370.00 398.00
C 372.91 398.04 373.18 393.94 376.00 394.00
C 376.00 389.33 376.00 384.67 376.00 380.00
C 370.83 384.85 371.36 373.87 365.00 374.00
C 365.35 379.76 361.00 378.07 359.00 379.00 Z"/>
</g>
<g fill="None" fill-opacity="0.0" stroke="#A0BCCF" stroke-opacity="1.00" stroke-width="0.3"><path d="
M 33.00 434.00 
C 37.43 431.30 41.99 425.19 45.77 421.77 C 49.55 418.35 56.52 414.34 58.70 409.70 C 60.88 405.05 69.34 401.81 70.00 397.00
C 69.11 401.17 59.85 405.03 57.25 409.25 C 54.64 413.46 48.30 417.91 44.75 421.75 C 41.20 425.60 36.82 430.43 33.00 434.00 Z"/>
</g>
<g fill="None" fill-opacity="0.0" stroke="#4381A0" stroke-opacity="1.00" stroke-width="0.3"><path d="
M 303.00 480.00 
C 306.93 477.16 311.08 473.72 315.00 471.00
C 319.86 465.29 322.62 463.18 328.00 459.00
C 326.22 457.08 325.93 455.33 327.00 453.00
C 324.12 454.43 322.35 457.30 323.00 452.00
C 320.29 451.87 321.79 455.01 321.00 457.00
C 321.30 451.84 313.15 447.47 317.00 443.00
C 311.73 443.39 317.56 441.08 316.00 438.00
C 311.07 438.67 314.42 433.60 313.00 431.00
C 311.50 435.54 309.28 434.33 305.00 436.00
C 296.26 439.41 290.37 445.83 282.23 451.23 C 274.09 456.63 267.15 459.06 258.25 464.25 C 249.34 469.43 240.93 463.37 233.00 458.00
C 231.85 457.40 230.91 456.56 230.00 456.00
C 221.84 452.56 215.98 448.08 208.75 442.25 C 201.51 436.43 196.00 434.70 188.75 427.25 C 181.50 419.80 178.30 420.33 170.25 429.25 C 162.20 438.17 172.92 442.76 172.00 453.00 C 171.08 463.24 180.85 467.23 187.77 472.23 C 194.69 477.23 201.41 482.18 208.77 486.23 C 216.13 490.28 223.46 494.37 230.92 498.08 C 238.38 501.79 249.58 508.21 257.92 503.92 C 266.27 499.63 274.13 497.40 281.77 492.77 C 289.41 488.14 295.91 485.12 303.00 480.00 Z"/>
</g>
<g fill="None" fill-opacity="0.0" stroke="#81A1B4" stroke-opacity="1.00" stroke-width="0.3"><path d="
M 30.00 435.00 
C 27.57 431.52 23.98 428.98 21.00 426.00
C 23.43 428.85 26.47 433.27 30.00 435.00 Z"/>
</g>
<g fill="None" fill-opacity="0.0" stroke="#D0E4EB" stroke-opacity="1.00" stroke-width="0.3"><path d="
M 230.00 456.00 
C 230.91 456.56 231.85 457.40 233.00 458.00
C 247.70 465.61 259.69 466.13 272.75 455.75 C 285.82 445.37 294.33 442.90 306.00 432.00
C 293.34 441.23 285.17 445.23 271.68 455.68 C 258.19 466.13 244.64 462.17 230.00 456.00 Z"/>
</g>
<g fill="None" fill-opacity="0.0" stroke="#BFDBE0" stroke-opacity="1.00" stroke-width="0.3"><path d="
M 315.00 471.00 
C 311.08 473.72 306.93 477.16 303.00 480.00
C 313.43 475.60 323.76 467.24 332.00 459.00
C 326.51 463.08 320.70 467.05 315.00 471.00 Z"/>
</g>
<g fill="#FDFEFE" fill-opacity="1.00" stroke="None">
<path d="
M 0.00 426.00 
C 3.20 420.00 10.78 418.12 17.00 421.00
C 22.65 423.61 25.52 431.17 31.00 434.00
C 35.99 428.09 46.87 420.89 51.25 414.25 C 55.62 407.60 71.12 400.63 67.74 393.26 C 64.37 385.89 52.28 380.46 47.75 373.25 C 43.23 366.04 28.07 359.95 33.00 350.00
C 33.37 349.08 33.61 347.83 34.00 347.00
C 40.72 332.83 54.99 343.40 61.00 352.00
C 61.40 352.20 62.00 352.00 62.00 352.00
C 66.11 342.83 78.96 335.90 85.75 327.75 C 92.54 319.60 101.97 310.86 110.00 304.00
C 119.71 295.71 127.59 283.97 138.00 278.00
C 136.37 286.58 139.04 297.99 140.78 305.22 C 142.51 312.45 129.23 315.66 127.00 321.00
C 131.31 331.68 154.58 340.31 144.00 353.00
C 140.89 355.80 138.18 356.49 134.00 355.00
C 125.72 352.05 120.65 341.18 114.00 336.00
C 102.43 343.48 96.86 353.46 85.75 362.75 C 74.64 372.04 92.71 382.65 100.75 391.25 C 108.80 399.84 119.75 411.07 129.00 418.00
C 131.34 412.39 137.95 409.65 141.75 404.75 C 145.56 399.85 150.89 396.10 155.25 391.25 C 159.60 386.39 163.94 382.79 168.75 377.75 C 173.56 372.71 176.16 370.43 181.75 364.75 C 187.35 359.07 188.21 358.30 195.25 351.25 C 202.29 344.20 203.00 352.57 203.00 362.00
C 203.00 362.50 203.02 363.50 203.00 364.00
C 206.38 373.69 205.17 377.84 197.25 384.25 C 189.33 390.66 186.20 395.56 180.25 401.25 C 174.30 406.94 167.48 412.68 163.25 418.25 C 159.02 423.81 146.08 430.29 147.00 437.00
C 150.27 444.60 165.70 454.08 153.75 462.75 C 141.80 471.42 135.00 458.13 127.25 451.75 C 119.49 445.37 114.06 436.91 106.25 430.75 C 98.44 424.59 91.21 440.13 84.25 445.25 C 77.29 450.37 70.33 460.97 63.00 466.00
C 67.14 474.52 86.58 484.63 76.25 495.25 C 65.92 505.86 55.99 489.90 48.25 482.75 C 40.50 475.60 32.12 466.40 24.25 458.75 C 16.38 451.10 7.24 441.96 0.00 434.00
L 0.00 507.00
L 500.00 507.00
L 500.00 0.00
L 496.00 0.00
C 501.48 12.15 486.56 20.65 478.25 29.25 C 469.94 37.84 462.15 46.48 452.75 54.75 C 443.35 63.03 432.86 73.28 436.00 85.00 C 439.14 96.72 409.30 106.04 426.25 111.75 C 443.19 117.47 440.86 132.58 442.00 147.00
C 442.29 147.73 442.86 147.82 443.00 149.00
C 447.86 160.93 443.75 176.69 445.00 190.00 C 446.25 203.31 444.75 218.74 443.00 231.00
C 442.72 244.82 440.07 259.23 437.00 272.00
C 433.51 296.96 425.73 322.20 416.00 345.00
C 405.11 370.53 392.37 394.71 374.00 416.00
C 360.84 431.24 346.26 444.74 332.00 459.00
C 323.76 467.24 313.43 475.60 303.00 480.00
C 295.91 485.12 289.41 488.14 281.77 492.77 C 274.13 497.40 266.27 499.63 257.92 503.92 C 249.58 508.21 238.38 501.79 230.92 498.08 C 223.46 494.37 216.13 490.28 208.77 486.23 C 201.41 482.18 194.69 477.23 187.77 472.23 C 180.85 467.23 171.08 463.24 172.00 453.00 C 172.92 442.76 162.20 438.17 170.25 429.25 C 178.30 420.33 181.50 419.80 188.75 427.25 C 196.00 434.70 201.51 436.43 208.75 442.25 C 215.98 448.08 221.84 452.56 230.00 456.00
C 244.64 462.17 258.19 466.13 271.68 455.68 C 285.17 445.23 293.34 441.23 306.00 432.00
C 307.85 430.28 310.12 428.60 312.00 427.00
C 333.30 405.70 350.82 383.57 368.00 360.00
C 372.57 350.75 377.49 341.19 382.00 332.00
C 382.04 331.50 381.83 330.43 382.00 330.00
C 382.83 327.89 383.32 326.12 384.00 324.00
C 385.29 319.97 387.82 315.49 389.00 312.00
C 390.28 306.23 392.14 301.24 394.00 296.00
C 398.76 274.87 405.00 252.24 405.00 230.00
C 403.82 214.67 405.86 196.47 405.00 180.00
C 397.59 182.08 395.08 189.40 388.30 194.30 C 381.52 199.20 378.50 204.57 371.75 209.75 C 365.01 214.94 363.17 220.16 356.23 226.23 C 349.29 232.30 343.29 222.34 332.00 225.00 C 320.71 227.66 325.73 216.89 333.25 212.25 C 340.77 207.60 342.70 202.04 350.00 197.00
C 350.20 196.60 350.00 196.00 350.00 196.00
C 352.16 190.41 360.85 184.10 365.75 179.75 C 370.66 175.40 377.26 167.55 383.00 164.00
C 383.32 163.80 383.89 163.35 384.00 163.00
C 385.29 158.73 390.28 157.08 392.75 152.75 C 395.22 148.43 397.07 141.46 396.00 136.00
C 392.35 125.19 381.64 120.46 374.75 111.25 C 367.86 102.03 352.77 95.98 343.77 104.77 C 334.77 113.56 329.04 119.99 320.00 128.00
C 324.41 137.29 348.47 147.78 338.75 159.75 C 329.03 171.71 313.76 148.18 307.00 142.00
C 298.89 144.35 295.82 155.76 288.25 159.25 C 280.68 162.73 266.08 157.18 257.00 158.00
C 264.14 149.89 271.55 143.03 279.25 135.25 C 286.94 127.47 294.76 121.39 301.75 112.75 C 308.74 104.12 317.40 98.70 324.75 89.75 C 332.10 80.81 344.57 76.08 356.00 76.00 C 367.43 75.92 379.90 86.87 388.25 79.25 C 396.59 71.63 404.13 58.20 416.00 61.00 C 427.87 63.80 433.10 52.79 441.25 45.25 C 449.41 37.71 455.86 30.30 463.75 22.75 C 471.64 15.20 480.03 8.45 487.00 0.00
L 0.00 0.00
L 0.00 426.00
M 312.00 73.00 
C 314.53 73.74 316.73 74.38 319.00 76.00
C 314.73 83.32 308.65 89.41 302.75 93.76 C 296.86 98.10 290.27 112.85 281.00 103.00
C 271.47 99.53 258.66 92.03 248.33 93.33 C 238.00 94.63 226.00 100.67 216.00 104.00
C 211.99 105.83 208.51 106.87 204.00 108.00
C 191.11 115.71 173.91 117.33 159.78 122.78 C 145.64 128.22 128.90 133.86 114.00 137.00
C 110.93 138.05 107.47 140.04 104.00 141.00
C 103.54 141.13 102.49 140.95 102.00 141.00
C 98.04 142.68 97.69 147.72 97.00 151.00
C 96.61 155.15 96.00 159.51 96.00 164.00
C 96.00 166.00 96.00 168.00 96.00 170.00
C 96.00 185.67 96.00 201.33 96.00 217.00
C 96.00 217.50 96.00 218.50 96.00 219.00
C 96.00 232.22 98.30 248.78 100.00 261.00 C 101.70 273.22 109.77 286.72 100.25 295.25 C 90.72 303.78 86.03 311.45 76.00 318.00
C 75.70 316.75 74.17 316.29 74.00 315.00
C 71.70 310.63 71.16 303.82 70.00 299.00
C 68.53 294.54 67.65 289.63 67.00 285.00
C 55.70 242.70 58.00 197.21 58.00 152.00
C 58.00 140.47 57.46 116.92 70.00 112.00
C 81.08 107.65 92.85 105.54 104.00 101.00
C 126.01 92.04 150.18 86.06 173.02 79.02 C 195.87 71.99 218.55 62.59 241.67 56.67 C 264.80 50.76 289.76 66.52 312.00 73.00
M 283.00 181.00 
C 285.34 190.06 281.78 200.65 283.00 210.00 C 284.22 219.35 282.09 229.57 283.00 239.00
C 292.12 240.08 305.87 237.50 315.01 239.99 C 324.14 242.49 340.71 235.20 346.75 243.25 C 352.79 251.30 348.08 266.59 349.00 276.00 C 349.92 285.41 352.13 301.04 342.00 304.00
C 340.49 309.37 329.46 305.05 324.00 306.00 C 318.54 306.95 308.19 305.63 302.00 306.00 C 295.81 306.37 288.83 305.55 284.00 308.00
C 285.29 326.04 282.28 337.28 284.00 356.00 C 285.72 374.72 263.78 371.01 250.00 371.00 C 236.22 370.99 215.40 374.55 217.00 356.00 C 218.60 337.45 215.80 324.99 217.00 307.00
C 217.00 306.50 217.23 305.16 217.00 305.00
C 216.61 304.79 216.00 305.00 216.00 305.00
C 206.99 305.00 196.90 305.72 188.00 305.00 C 179.10 304.28 167.75 307.29 160.00 304.00
C 159.50 304.00 158.50 304.03 158.00 304.00
C 148.84 303.46 151.60 284.07 152.00 276.00 C 152.40 267.93 149.37 251.80 153.75 243.75 C 158.14 235.71 173.50 238.98 182.00 238.00 C 190.50 237.02 206.22 242.62 214.22 238.22 C 222.22 233.82 214.04 214.30 217.00 207.00 C 219.96 199.70 211.46 179.53 221.00 176.00
C 222.05 175.61 223.14 175.37 224.00 175.00
C 231.96 171.59 247.15 174.40 256.00 174.00 C 264.85 173.60 281.42 170.43 283.00 181.00 Z"/>
</g>
<g fill="#5AAB8B" fill-opacity="1.00" stroke="None">
<path d="
M 396.00 136.00 
C 397.41 140.18 397.37 145.48 396.00 150.00
C 394.01 156.56 387.31 162.74 381.77 166.77 C 376.23 170.80 372.15 178.99 366.00 182.00
C 365.60 182.20 365.00 182.00 365.00 182.00
C 353.99 197.76 337.11 208.72 326.00 224.00
C 334.35 226.86 345.59 221.50 353.00 228.00
C 361.31 219.26 370.44 209.42 379.25 201.25 C 388.06 193.07 396.88 181.11 406.00 177.00
C 409.01 176.86 408.05 186.92 408.00 191.00 C 407.95 195.08 408.27 202.17 408.00 208.00 C 407.73 213.83 408.68 217.32 408.00 225.00 C 407.32 232.68 404.07 245.55 410.08 249.92 C 416.09 254.28 412.29 253.63 412.00 259.00
C 409.59 254.61 410.28 260.52 407.00 255.00
C 404.57 256.74 403.94 264.23 406.00 268.00
C 407.64 265.36 405.92 261.14 408.00 259.00
C 414.48 262.50 408.30 267.49 411.00 272.00
C 409.99 267.35 418.29 265.89 414.00 263.00
C 418.78 259.94 427.77 260.76 426.00 266.00
C 431.31 263.11 431.10 268.30 434.00 270.00
C 436.25 267.74 435.31 263.31 438.00 261.00
C 442.24 224.07 445.03 185.24 442.00 147.00
C 440.86 132.58 443.19 117.47 426.25 111.75 C 409.30 106.04 439.14 96.72 436.00 85.00 C 432.86 73.28 443.35 63.03 452.75 54.75 C 462.15 46.48 469.94 37.84 478.25 29.25 C 486.56 20.65 501.48 12.15 496.00 0.00
L 487.00 0.00
C 480.03 8.45 471.64 15.20 463.75 22.75 C 455.86 30.30 449.41 37.71 441.25 45.25 C 433.10 52.79 427.87 63.80 416.00 61.00 C 404.13 58.20 396.59 71.63 388.25 79.25 C 379.90 86.87 367.43 75.92 356.00 76.00 C 344.57 76.08 332.10 80.81 324.75 89.75 C 317.40 98.70 308.74 104.12 301.75 112.75 C 294.76 121.39 286.94 127.47 279.25 135.25 C 271.55 143.03 264.14 149.89 257.00 158.00
C 266.08 157.18 280.68 162.73 288.25 159.25 C 295.82 155.76 298.89 144.35 307.00 142.00
C 313.76 148.18 329.03 171.71 338.75 159.75 C 348.47 147.78 324.41 137.29 320.00 128.00
C 329.04 119.99 334.77 113.56 343.77 104.77 C 352.77 95.98 367.86 102.03 374.75 111.25 C 381.64 120.46 392.35 125.19 396.00 136.00 Z"/>
</g>
<g fill="#ADCFC7" fill-opacity="1.00" stroke="None">
<path d="
M 104.00 101.00 
C 112.68 98.82 121.57 97.11 130.00 94.00
C 142.57 89.36 156.08 84.50 169.00 81.00
C 185.63 76.49 202.28 71.23 218.69 65.69 C 235.11 60.16 251.48 51.29 267.74 60.26 C 284.01 69.22 299.94 67.98 316.00 77.00
C 312.99 82.88 306.81 86.68 303.00 92.00
C 308.40 87.38 322.80 77.61 312.00 73.00
C 289.76 66.52 264.80 50.76 241.67 56.67 C 218.55 62.59 195.87 71.99 173.02 79.02 C 150.18 86.06 126.01 92.04 104.00 101.00 Z"/>
</g>
<g fill="#54A58F" fill-opacity="1.00" stroke="None">
<path d="
M 169.00 81.00 
C 167.65 81.09 176.08 84.04 179.00 83.00
C 178.16 86.18 182.48 86.67 182.00 90.00
C 170.36 85.39 187.46 97.65 181.00 102.00
C 186.48 102.89 182.44 96.29 184.00 94.00
C 188.11 98.06 185.00 101.81 188.76 106.25 C 192.51 110.69 198.89 106.79 204.00 107.00
C 208.22 106.53 212.01 105.33 216.00 104.00
C 226.00 100.67 238.00 94.63 248.33 93.33 C 258.66 92.03 271.47 99.53 281.00 103.00
C 291.55 106.85 295.31 98.57 303.00 92.00
C 306.81 86.68 312.99 82.88 316.00 77.00
C 299.94 67.98 284.01 69.22 267.74 60.26 C 251.48 51.29 235.11 60.16 218.69 65.69 C 202.28 71.23 185.63 76.49 169.00 81.00 Z"/>
</g>
<g fill="#E1F6EE" fill-opacity="1.00" stroke="None">
<path d="
M 303.00 92.00 
C 295.31 98.57 291.55 106.85 281.00 103.00
C 290.27 112.85 296.86 98.10 302.75 93.76 C 308.65 89.41 314.73 83.32 319.00 76.00
C 316.73 74.38 314.53 73.74 312.00 73.00
C 322.80 77.61 308.40 87.38 303.00 92.00 Z"/>
</g>
<g fill="#4A9694" fill-opacity="1.00" stroke="None">
<path d="
M 130.00 94.00 
C 116.52 100.81 100.04 101.96 87.00 109.00
C 92.23 107.23 97.58 106.09 103.00 105.00
C 99.45 107.51 108.25 107.49 101.00 110.00
C 105.71 110.98 109.78 110.73 114.00 112.00
C 110.31 110.99 107.01 114.32 108.00 118.00
C 115.11 117.41 110.63 125.62 112.00 130.00
C 108.65 125.61 107.17 131.95 103.00 131.00
C 106.61 132.50 108.87 130.42 107.00 136.00
C 102.62 134.25 100.92 139.45 97.00 139.00
C 96.99 140.63 98.28 141.51 97.00 143.00
C 97.59 141.93 100.91 141.12 102.00 141.00
C 102.49 140.95 103.54 141.13 104.00 141.00
C 107.21 138.42 109.81 137.88 114.00 137.00
C 128.90 133.86 145.64 128.22 159.78 122.78 C 173.91 117.33 191.11 115.71 204.00 108.00
C 204.22 107.87 204.00 107.00 204.00 107.00
C 198.89 106.79 192.51 110.69 188.76 106.25 C 185.00 101.81 188.11 98.06 184.00 94.00
C 182.44 96.29 186.48 102.89 181.00 102.00
C 187.46 97.65 170.36 85.39 182.00 90.00
C 182.48 86.67 178.16 86.18 179.00 83.00
C 176.08 84.04 167.65 81.09 169.00 81.00
C 156.08 84.50 142.57 89.36 130.00 94.00 Z"/>
</g>
<g fill="#78A5AA" fill-opacity="1.00" stroke="None">
<path d="
M 104.00 101.00 
C 92.85 105.54 81.08 107.65 70.00 112.00
C 58.73 118.62 59.00 140.66 59.00 152.00
C 59.00 156.27 59.40 160.75 59.00 165.00
C 61.76 151.89 62.23 141.90 63.98 127.98 C 65.72 114.05 76.17 114.84 87.00 109.00
C 100.04 101.96 116.52 100.81 130.00 94.00
C 121.57 97.11 112.68 98.82 104.00 101.00 Z"/>
</g>
<g fill="#A7CDC7" fill-opacity="1.00" stroke="None">
<path d="
M 204.00 107.00 
C 204.00 107.00 204.22 107.87 204.00 108.00
C 208.51 106.87 211.99 105.83 216.00 104.00
C 212.01 105.33 208.22 106.53 204.00 107.00 Z"/>
</g>
<g fill="#448A99" fill-opacity="1.00" stroke="None">
<path d="
M 87.00 109.00 
C 76.17 114.84 65.72 114.05 63.98 127.98 C 62.23 141.90 61.76 151.89 59.00 165.00
C 56.45 192.17 56.54 224.07 62.00 250.00
C 60.17 230.48 59.57 211.75 59.00 192.00
C 57.09 200.93 74.36 209.89 64.00 216.00
C 69.79 218.47 63.86 219.03 63.00 221.00
C 64.90 222.22 67.55 223.51 70.00 224.00
C 69.05 219.13 73.71 220.79 76.00 218.00
C 80.48 222.91 83.32 227.09 89.00 230.00
C 89.60 226.74 88.17 224.09 88.00 221.00
C 90.84 222.30 88.91 226.48 91.00 228.00
C 90.42 224.24 93.99 222.20 95.00 219.00
C 90.87 211.15 95.69 199.71 94.00 191.00 C 92.31 182.29 95.06 171.77 96.00 164.00
C 96.00 159.51 96.61 155.15 97.00 151.00
C 97.25 148.36 96.77 145.65 97.00 143.00
C 98.28 141.51 96.99 140.63 97.00 139.00
C 100.92 139.45 102.62 134.25 107.00 136.00
C 108.87 130.42 106.61 132.50 103.00 131.00
C 107.17 131.95 108.65 125.61 112.00 130.00
C 110.63 125.62 115.11 117.41 108.00 118.00
C 107.01 114.32 110.31 110.99 114.00 112.00
C 109.78 110.73 105.71 110.98 101.00 110.00
C 108.25 107.49 99.45 107.51 103.00 105.00
C 97.58 106.09 92.23 107.23 87.00 109.00 Z"/>
</g>
<g fill="#CCE1E6" fill-opacity="1.00" stroke="None">
<path d="
M 58.00 152.00 
C 58.00 151.96 59.00 152.00 59.00 152.00
C 59.00 140.66 58.73 118.62 70.00 112.00
C 57.46 116.92 58.00 140.47 58.00 152.00 Z"/>
</g>
<g fill="#DDF5E9" fill-opacity="1.00" stroke="None">
<path d="
M 384.00 163.00 
C 388.14 159.77 394.19 154.67 396.00 150.00
C 397.37 145.48 397.41 140.18 396.00 136.00
C 397.07 141.46 395.22 148.43 392.75 152.75 C 390.28 157.08 385.29 158.73 384.00 163.00 Z"/>
</g>
<g fill="#99B7BC" fill-opacity="1.00" stroke="None">
<path d="
M 104.00 141.00 
C 107.47 140.04 110.93 138.05 114.00 137.00
C 109.81 137.88 107.21 138.42 104.00 141.00 Z"/>
</g>
<g fill="#C0E1E3" fill-opacity="1.00" stroke="None">
<path d="
M 97.00 143.00 
C 96.77 145.65 97.25 148.36 97.00 151.00
C 97.69 147.72 98.04 142.68 102.00 141.00
C 100.91 141.12 97.59 141.93 97.00 143.00 Z"/>
</g>
<g fill="#A1CAB8" fill-opacity="1.00" stroke="None">
<path d="
M 438.00 261.00 
C 437.57 264.74 437.53 268.23 437.00 272.00
C 440.07 259.23 442.72 244.82 443.00 231.00
C 443.53 204.31 446.28 175.64 443.00 149.00
C 442.86 147.82 442.29 147.73 442.00 147.00
C 445.03 185.24 442.24 224.07 438.00 261.00 Z"/>
</g>
<g fill="#DEF3E8" fill-opacity="1.00" stroke="None">
<path d="
M 443.00 231.00 
C 444.75 218.74 446.25 203.31 445.00 190.00 C 443.75 176.69 447.86 160.93 443.00 149.00
C 446.28 175.64 443.53 204.31 443.00 231.00 Z"/>
</g>
<g fill="#8EBCA8" fill-opacity="1.00" stroke="None">
<path d="
M 384.00 163.00 
C 383.89 163.35 383.32 163.80 383.00 164.00
C 377.98 170.44 370.64 175.36 366.00 182.00
C 372.15 178.99 376.23 170.80 381.77 166.77 C 387.31 162.74 394.01 156.56 396.00 150.00
C 394.19 154.67 388.14 159.77 384.00 163.00 Z"/>
</g>
<g fill="#98B5C2" fill-opacity="1.00" stroke="None">
<path d="
M 67.00 285.00 
C 65.36 273.29 63.10 261.75 62.00 250.00
C 56.54 224.07 56.45 192.17 59.00 165.00
C 59.40 160.75 59.00 156.27 59.00 152.00
C 59.00 152.00 58.00 151.96 58.00 152.00
C 58.00 197.21 55.70 242.70 67.00 285.00 Z"/>
</g>
<g fill="#87ACB4" fill-opacity="1.00" stroke="None">
<path d="
M 95.00 219.00 
C 95.18 218.76 96.00 219.00 96.00 219.00
C 96.00 218.50 96.00 217.50 96.00 217.00
C 93.18 210.36 95.80 201.59 95.00 194.00 C 94.20 186.41 95.33 176.88 96.00 170.00
C 96.00 168.00 96.00 166.00 96.00 164.00
C 95.06 171.77 92.31 182.29 94.00 191.00 C 95.69 199.71 90.87 211.15 95.00 219.00 Z"/>
</g>
<g fill="#CEEADF" fill-opacity="1.00" stroke="None">
<path d="
M 350.00 196.00 
C 355.35 192.26 359.21 184.83 365.00 182.00
C 365.00 182.00 365.60 182.20 366.00 182.00
C 370.64 175.36 377.98 170.44 383.00 164.00
C 377.26 167.55 370.66 175.40 365.75 179.75 C 360.85 184.10 352.16 190.41 350.00 196.00 Z"/>
</g>
<g fill="#DCF6FB" fill-opacity="1.00" stroke="None">
<path d="
M 96.00 217.00 
C 96.00 201.33 96.00 185.67 96.00 170.00
C 95.33 176.88 94.20 186.41 95.00 194.00 C 95.80 201.59 93.18 210.36 96.00 217.00 Z"/>
</g>
<g fill="#C1DBD7" fill-opacity="1.00" stroke="None">
<path d="
M 224.00 175.00 
C 231.75 173.30 247.62 175.02 255.00 175.00 C 262.38 174.98 279.05 171.62 282.00 179.00
C 282.05 179.13 283.02 181.07 283.00 181.00
C 281.42 170.43 264.85 173.60 256.00 174.00 C 247.15 174.40 231.96 171.59 224.00 175.00 Z"/>
</g>
<g fill="#87B0AB" fill-opacity="1.00" stroke="None">
<path d="
M 221.00 176.00 
C 215.17 179.15 219.09 189.21 218.00 195.00 C 216.91 200.79 219.05 210.64 218.00 217.00 C 216.95 223.36 220.10 233.12 217.00 239.00
C 217.50 239.00 218.00 239.00 218.00 239.00
C 221.65 232.07 218.51 222.11 219.00 214.00 C 219.49 205.89 219.87 196.62 219.00 188.00 C 218.13 179.38 224.70 174.48 233.00 176.00 C 241.30 177.52 251.76 174.43 259.00 176.00 C 266.24 177.57 277.83 172.33 282.00 179.00
C 279.05 171.62 262.38 174.98 255.00 175.00 C 247.62 175.02 231.75 173.30 224.00 175.00
C 223.14 175.37 222.05 175.61 221.00 176.00 Z"/>
</g>
<g fill="#D0E2E4" fill-opacity="1.00" stroke="None">
<path d="
M 158.00 304.00 
C 156.89 303.35 155.83 300.93 155.00 300.00
C 154.77 299.74 154.22 299.30 154.00 299.00
C 150.83 294.70 153.54 286.73 153.00 281.00 C 152.46 275.27 152.88 266.95 153.00 261.00
C 153.16 252.90 152.60 239.55 164.00 240.00
C 170.29 238.70 181.90 237.41 188.00 240.00
C 188.50 240.00 189.50 240.00 190.00 240.00
C 198.08 240.00 208.51 241.65 216.00 239.00
C 216.44 238.84 217.00 239.00 217.00 239.00
C 220.10 233.12 216.95 223.36 218.00 217.00 C 219.05 210.64 216.91 200.79 218.00 195.00 C 219.09 189.21 215.17 179.15 221.00 176.00
C 211.46 179.53 219.96 199.70 217.00 207.00 C 214.04 214.30 222.22 233.82 214.22 238.22 C 206.22 242.62 190.50 237.02 182.00 238.00 C 173.50 238.98 158.14 235.71 153.75 243.75 C 149.37 251.80 152.40 267.93 152.00 276.00 C 151.60 284.07 148.84 303.46 158.00 304.00 Z"/>
</g>
<g fill="#4A9893" fill-opacity="1.00" stroke="None">
<path d="
M 218.00 239.00 
C 220.30 240.79 221.71 232.18 224.00 229.00
C 222.20 235.52 224.03 243.74 232.00 244.00
C 230.95 247.58 235.32 248.20 232.00 251.00
C 237.63 251.36 242.36 254.93 240.00 261.00
C 245.31 263.88 249.35 265.03 256.00 266.00
C 254.55 276.65 271.67 267.19 272.00 276.00
C 269.02 275.08 267.43 277.19 266.00 279.00
C 267.73 281.20 269.70 283.58 271.00 286.00
C 273.15 284.29 270.55 281.14 270.00 279.00
C 277.68 278.97 271.03 288.64 276.00 288.00
C 274.28 290.62 271.37 287.35 269.00 288.00
C 269.65 296.29 276.64 289.30 281.10 292.91 C 285.56 296.51 290.49 293.93 296.00 296.00
C 294.23 298.03 290.52 296.53 288.00 297.00
C 287.93 299.41 288.44 301.95 287.00 304.00
C 304.43 301.91 323.43 304.00 341.00 304.00
C 341.50 304.00 342.00 304.00 342.00 304.00
C 352.13 301.04 349.92 285.41 349.00 276.00 C 348.08 266.59 352.79 251.30 346.75 243.25 C 340.71 235.20 324.14 242.49 315.01 239.99 C 305.87 237.50 292.12 240.08 283.00 239.00
C 282.09 229.57 284.22 219.35 283.00 210.00 C 281.78 200.65 285.34 190.06 283.00 181.00
C 283.02 181.07 282.05 179.13 282.00 179.00
C 277.83 172.33 266.24 177.57 259.00 176.00 C 251.76 174.43 241.30 177.52 233.00 176.00 C 224.70 174.48 218.13 179.38 219.00 188.00 C 219.87 196.62 219.49 205.89 219.00 214.00 C 218.51 222.11 221.65 232.07 218.00 239.00 Z"/>
</g>
<g fill="#D0EAE2" fill-opacity="1.00" stroke="None">
<path d="
M 326.00 224.00 
C 322.94 222.95 333.51 214.76 336.25 211.25 C 338.98 207.73 347.85 201.40 350.00 197.00
C 342.70 202.04 340.77 207.60 333.25 212.25 C 325.73 216.89 320.71 227.66 332.00 225.00 C 343.29 222.34 349.29 232.30 356.23 226.23 C 363.17 220.16 365.01 214.94 371.75 209.75 C 378.50 204.57 381.52 199.20 388.30 194.30 C 395.08 189.40 397.59 182.08 405.00 180.00
C 405.86 196.47 403.82 214.67 405.00 230.00
C 405.00 229.02 404.92 227.98 405.00 227.00
C 406.31 211.38 406.00 195.00 406.00 179.00
C 406.00 178.50 406.23 177.35 406.00 177.00
C 396.88 181.11 388.06 193.07 379.25 201.25 C 370.44 209.42 361.31 219.26 353.00 228.00
C 345.59 221.50 334.35 226.86 326.00 224.00 Z"/>
</g>
<g fill="#55A290" fill-opacity="1.00" stroke="None">
<path d="
M 406.00 179.00 
C 408.87 185.74 406.43 195.27 407.00 203.00 C 407.57 210.73 407.73 220.66 405.00 227.00
C 404.92 227.98 405.00 229.02 405.00 230.00
C 405.00 252.24 398.76 274.87 394.00 296.00
C 391.37 307.70 389.52 320.60 382.00 330.00
C 381.83 330.43 382.04 331.50 382.00 332.00
C 381.91 333.29 381.41 333.82 381.00 335.00
C 382.97 330.89 387.62 327.24 388.00 322.00
C 389.88 324.41 388.52 328.74 391.00 324.00
C 393.87 326.91 397.68 330.05 396.00 336.00
C 396.29 332.18 400.91 330.28 400.00 336.00
C 405.35 334.79 405.00 344.64 410.00 340.00
C 408.76 343.04 408.29 343.30 410.00 346.00
C 405.66 346.55 409.48 350.43 406.00 352.00
C 411.23 353.14 410.25 347.98 412.00 345.00
C 413.87 347.78 415.10 343.33 416.00 345.00
C 425.73 322.20 433.51 296.96 437.00 272.00
C 437.53 268.23 437.57 264.74 438.00 261.00
C 435.31 263.31 436.25 267.74 434.00 270.00
C 431.10 268.30 431.31 263.11 426.00 266.00
C 427.77 260.76 418.78 259.94 414.00 263.00
C 418.29 265.89 409.99 267.35 411.00 272.00
C 408.30 267.49 414.48 262.50 408.00 259.00
C 405.92 261.14 407.64 265.36 406.00 268.00
C 403.94 264.23 404.57 256.74 407.00 255.00
C 410.28 260.52 409.59 254.61 412.00 259.00
C 412.29 253.63 416.09 254.28 410.08 249.92 C 404.07 245.55 407.32 232.68 408.00 225.00 C 408.68 217.32 407.73 213.83 408.00 208.00 C 408.27 202.17 407.95 195.08 408.00 191.00 C 408.05 186.92 409.01 176.86 406.00 177.00
C 406.23 177.35 406.00 178.50 406.00 179.00 Z"/>
</g>
<g fill="#A3CCBB" fill-opacity="1.00" stroke="None">
<path d="
M 405.00 227.00 
C 407.73 220.66 407.57 210.73 407.00 203.00 C 406.43 195.27 408.87 185.74 406.00 179.00
C 406.00 195.00 406.31 211.38 405.00 227.00 Z"/>
</g>
<g fill="#8BB9AC" fill-opacity="1.00" stroke="None">
<path d="
M 350.00 196.00 
C 350.00 196.00 350.20 196.60 350.00 197.00
C 347.85 201.40 338.98 207.73 336.25 211.25 C 333.51 214.76 322.94 222.95 326.00 224.00
C 337.11 208.72 353.99 197.76 365.00 182.00
C 359.21 184.83 355.35 192.26 350.00 196.00 Z"/>
</g>
<g fill="#4582A0" fill-opacity="1.00" stroke="None">
<path d="
M 62.00 250.00 
C 63.10 261.75 65.36 273.29 67.00 285.00
C 67.65 289.63 68.53 294.54 70.00 299.00
C 70.75 301.27 71.33 304.87 72.97 307.03 C 74.62 309.18 73.60 313.92 74.00 315.00
C 74.17 316.29 75.70 316.75 76.00 318.00
C 86.03 311.45 90.72 303.78 100.25 295.25 C 109.77 286.72 101.70 273.22 100.00 261.00 C 98.30 248.78 96.00 232.22 96.00 219.00
C 96.00 219.00 95.18 218.76 95.00 219.00
C 93.99 222.20 90.42 224.24 91.00 228.00
C 88.91 226.48 90.84 222.30 88.00 221.00
C 88.17 224.09 89.60 226.74 89.00 230.00
C 83.32 227.09 80.48 222.91 76.00 218.00
C 73.71 220.79 69.05 219.13 70.00 224.00
C 67.55 223.51 64.90 222.22 63.00 221.00
C 63.86 219.03 69.79 218.47 64.00 216.00
C 74.36 209.89 57.09 200.93 59.00 192.00
C 59.57 211.75 60.17 230.48 62.00 250.00 Z"/>
</g>
<g fill="#458A99" fill-opacity="1.00" stroke="None">
<path d="
M 218.00 239.00 
C 218.00 239.00 217.50 239.00 217.00 239.00
C 217.00 239.00 216.44 238.84 216.00 239.00
C 212.70 243.31 194.22 241.80 190.00 240.00
C 189.50 240.00 188.50 240.00 188.00 240.00
C 180.67 240.00 173.33 240.00 166.00 240.00
C 152.44 242.62 156.33 252.19 155.00 263.00 C 153.67 273.81 158.35 289.56 155.00 300.00
C 155.83 300.93 156.89 303.35 158.00 304.00
C 158.50 304.03 159.50 304.00 160.00 304.00
C 168.37 304.00 179.95 302.78 188.00 304.00 C 196.05 305.22 209.84 300.44 216.00 305.00
C 216.00 305.00 216.61 304.79 217.00 305.00
C 222.27 307.85 217.92 319.14 219.00 325.00 C 220.08 330.86 218.36 341.44 219.00 348.00 C 219.64 354.56 217.26 362.58 222.00 368.00
C 222.41 368.19 223.00 368.00 223.00 368.00
C 229.58 371.76 241.25 368.64 249.00 369.00 C 256.75 369.36 268.21 370.32 276.00 369.00
C 289.90 364.78 279.98 340.77 283.00 330.00 C 286.02 319.23 278.90 315.27 283.00 306.00
C 284.05 303.63 284.23 304.33 287.00 304.00
C 288.44 301.95 287.93 299.41 288.00 297.00
C 290.52 296.53 294.23 298.03 296.00 296.00
C 290.49 293.93 285.56 296.51 281.10 292.91 C 276.64 289.30 269.65 296.29 269.00 288.00
C 271.37 287.35 274.28 290.62 276.00 288.00
C 271.03 288.64 277.68 278.97 270.00 279.00
C 270.55 281.14 273.15 284.29 271.00 286.00
C 269.70 283.58 267.73 281.20 266.00 279.00
C 267.43 277.19 269.02 275.08 272.00 276.00
C 271.67 267.19 254.55 276.65 256.00 266.00
C 249.35 265.03 245.31 263.88 240.00 261.00
C 242.36 254.93 237.63 251.36 232.00 251.00
C 235.32 248.20 230.95 247.58 232.00 244.00
C 224.03 243.74 222.20 235.52 224.00 229.00
C 221.71 232.18 220.30 240.79 218.00 239.00 Z"/>
</g>
<g fill="#9DAEAF" fill-opacity="1.00" stroke="None">
<path d="
M 164.00 240.00 
C 164.50 240.02 165.50 240.00 166.00 240.00
C 173.33 240.00 180.67 240.00 188.00 240.00
C 181.90 237.41 170.29 238.70 164.00 240.00 Z"/>
</g>
<g fill="#7FB7BC" fill-opacity="1.00" stroke="None">
<path d="
M 190.00 240.00 
C 194.22 241.80 212.70 243.31 216.00 239.00
C 208.51 241.65 198.08 240.00 190.00 240.00 Z"/>
</g>
<g fill="#6F9CAB" fill-opacity="1.00" stroke="None">
<path d="
M 153.00 261.00 
C 153.89 272.62 152.26 286.90 154.00 299.00
C 154.22 299.30 154.77 299.74 155.00 300.00
C 158.35 289.56 153.67 273.81 155.00 263.00 C 156.33 252.19 152.44 242.62 166.00 240.00
C 165.50 240.00 164.50 240.02 164.00 240.00
C 152.60 239.55 153.16 252.90 153.00 261.00 Z"/>
</g>
<g fill="#A3BDC7" fill-opacity="1.00" stroke="None">
<path d="
M 154.00 299.00 
C 152.26 286.90 153.89 272.62 153.00 261.00
C 152.88 266.95 152.46 275.27 153.00 281.00 C 153.54 286.73 150.83 294.70 154.00 299.00 Z"/>
</g>
<g fill="#94B2C0" fill-opacity="1.00" stroke="None">
<path d="
M 110.00 304.00 
C 102.35 311.65 94.77 321.57 86.25 328.25 C 77.73 334.93 71.60 347.30 62.00 352.00
C 62.00 352.00 61.40 352.20 61.00 352.00
C 57.00 350.04 54.95 344.93 51.00 343.00
C 53.33 346.33 58.71 353.27 63.00 353.00
C 67.88 351.96 68.04 345.35 73.75 342.75 C 79.46 340.15 76.27 336.22 83.75 331.75 C 91.23 327.28 97.89 315.91 105.08 311.08 C 112.27 306.26 110.69 304.93 115.25 300.25 C 119.82 295.58 121.68 293.66 126.25 290.25 C 130.81 286.83 131.40 281.46 137.00 280.00
C 134.77 288.13 138.82 299.46 139.92 306.08 C 141.02 312.70 127.84 315.91 126.00 321.00
C 130.57 331.92 151.20 339.60 144.00 353.00
C 154.58 340.31 131.31 331.68 127.00 321.00
C 129.23 315.66 142.51 312.45 140.78 305.22 C 139.04 297.99 136.37 286.58 138.00 278.00
C 127.59 283.97 119.71 295.71 110.00 304.00 Z"/>
</g>
<g fill="#50889F" fill-opacity="1.00" stroke="None">
<path d="
M 63.00 353.00 
C 69.89 352.57 74.25 341.14 79.25 337.25 C 84.26 333.37 91.28 326.95 95.75 321.75 C 100.22 316.55 107.57 308.21 112.00 311.00
C 112.15 305.16 119.55 292.65 128.00 295.00
C 123.53 299.96 132.19 303.83 136.00 307.00
C 132.17 308.92 132.24 313.49 128.00 312.00
C 130.93 320.28 120.55 318.61 120.00 323.00
C 123.97 320.31 127.88 326.52 131.70 330.30 C 135.51 334.09 141.18 339.22 143.00 344.00
C 137.45 342.91 136.98 347.54 138.00 352.00
C 127.33 353.43 124.69 338.24 115.00 336.00
C 120.71 342.80 127.74 349.20 134.00 355.00
C 138.18 356.49 140.89 355.80 144.00 353.00
C 151.20 339.60 130.57 331.92 126.00 321.00
C 127.84 315.91 141.02 312.70 139.92 306.08 C 138.82 299.46 134.77 288.13 137.00 280.00
C 131.40 281.46 130.81 286.83 126.25 290.25 C 121.68 293.66 119.82 295.58 115.25 300.25 C 110.69 304.93 112.27 306.26 105.08 311.08 C 97.89 315.91 91.23 327.28 83.75 331.75 C 76.27 336.22 79.46 340.15 73.75 342.75 C 68.04 345.35 67.88 351.96 63.00 353.00 Z"/>
</g>
<g fill="#417DA3" fill-opacity="1.00" stroke="None">
<path d="
M 63.00 353.00 
C 58.71 353.27 53.33 346.33 51.00 343.00
C 50.60 342.80 50.00 343.00 50.00 343.00
C 43.37 340.12 30.44 348.24 34.33 355.67 C 38.22 363.10 43.76 366.25 49.25 372.75 C 54.75 379.24 57.19 382.89 65.08 387.92 C 72.97 392.95 69.73 402.22 62.75 405.75 C 55.77 409.29 53.71 419.61 47.75 421.75 C 41.80 423.90 35.28 437.97 31.00 435.00
C 30.52 435.09 30.00 435.00 30.00 435.00
C 26.47 433.27 23.43 428.85 21.00 426.00
C 19.96 424.79 18.28 421.71 17.00 421.00
C 10.78 418.12 3.20 420.00 0.00 426.00
L 0.00 434.00
C 7.24 441.96 16.38 451.10 24.25 458.75 C 32.12 466.40 40.50 475.60 48.25 482.75 C 55.99 489.90 65.92 505.86 76.25 495.25 C 86.58 484.63 67.14 474.52 63.00 466.00
C 70.33 460.97 77.29 450.37 84.25 445.25 C 91.21 440.13 98.44 424.59 106.25 430.75 C 114.06 436.91 119.49 445.37 127.25 451.75 C 135.00 458.13 141.80 471.42 153.75 462.75 C 165.70 454.08 150.27 444.60 147.00 437.00
C 146.23 435.22 146.06 435.10 147.00 433.00
C 150.07 426.14 158.78 421.54 163.75 415.75 C 168.72 409.96 175.61 403.39 181.00 398.00
C 180.88 398.24 184.15 390.78 188.00 389.00
C 186.97 386.50 185.18 388.32 184.00 386.00
C 188.43 385.26 191.86 380.42 195.00 383.00
C 196.61 380.10 198.24 378.39 197.00 375.00
C 207.71 374.82 199.44 365.25 200.00 359.00
C 195.79 360.75 195.86 359.97 192.00 358.00
C 191.29 360.61 188.00 362.60 188.00 366.00
C 194.56 362.82 186.62 369.92 183.00 368.00
C 185.03 372.46 179.45 373.05 184.00 376.00
C 171.65 372.19 165.78 386.75 156.75 393.75 C 147.73 400.76 140.96 411.66 131.00 418.00
C 130.56 418.16 130.00 418.00 130.00 418.00
C 129.50 418.00 129.00 418.00 129.00 418.00
C 119.75 411.07 108.80 399.84 100.75 391.25 C 92.71 382.65 74.64 372.04 85.75 362.75 C 96.86 353.46 102.43 343.48 114.00 336.00
C 120.65 341.18 125.72 352.05 134.00 355.00
C 127.74 349.20 120.71 342.80 115.00 336.00
C 124.69 338.24 127.33 353.43 138.00 352.00
C 136.98 347.54 137.45 342.91 143.00 344.00
C 141.18 339.22 135.51 334.09 131.70 330.30 C 127.88 326.52 123.97 320.31 120.00 323.00
C 120.55 318.61 130.93 320.28 128.00 312.00
C 132.24 313.49 132.17 308.92 136.00 307.00
C 132.19 303.83 123.53 299.96 128.00 295.00
C 119.55 292.65 112.15 305.16 112.00 311.00
C 107.57 308.21 100.22 316.55 95.75 321.75 C 91.28 326.95 84.26 333.37 79.25 337.25 C 74.25 341.14 69.89 352.57 63.00 353.00 Z"/>
</g>
<g fill="#99BFB9" fill-opacity="1.00" stroke="None">
<path d="
M 389.00 312.00 
C 388.01 316.48 385.73 320.12 384.00 324.00
C 383.32 326.12 382.83 327.89 382.00 330.00
C 389.52 320.60 391.37 307.70 394.00 296.00
C 392.14 301.24 390.28 306.23 389.00 312.00 Z"/>
</g>
<g fill="#A1BECB" fill-opacity="1.00" stroke="None">
<path d="
M 74.00 315.00 
C 73.60 313.92 74.62 309.18 72.97 307.03 C 71.33 304.87 70.75 301.27 70.00 299.00
C 71.16 303.82 71.70 310.63 74.00 315.00 Z"/>
</g>
<g fill="#D2E2EC" fill-opacity="1.00" stroke="None">
<path d="
M 62.00 352.00 
C 71.60 347.30 77.73 334.93 86.25 328.25 C 94.77 321.57 102.35 311.65 110.00 304.00
C 101.97 310.86 92.54 319.60 85.75 327.75 C 78.96 335.90 66.11 342.83 62.00 352.00 Z"/>
</g>
<g fill="#94A7AA" fill-opacity="1.00" stroke="None">
<path d="
M 216.00 305.00 
C 209.84 300.44 196.05 305.22 188.00 304.00 C 179.95 302.78 168.37 304.00 160.00 304.00
C 167.75 307.29 179.10 304.28 188.00 305.00 C 196.90 305.72 206.99 305.00 216.00 305.00 Z"/>
</g>
<g fill="#98B1AF" fill-opacity="1.00" stroke="None">
<path d="
M 283.00 306.00 
C 285.98 301.78 297.07 306.50 302.00 305.00 C 306.93 303.50 316.58 306.24 322.00 305.00 C 327.42 303.76 336.59 307.26 341.00 304.00
C 323.43 304.00 304.43 301.91 287.00 304.00
C 284.23 304.33 284.05 303.63 283.00 306.00 Z"/>
</g>
<g fill="#D6E9EE" fill-opacity="1.00" stroke="None">
<path d="
M 283.00 306.00 
C 278.90 315.27 286.02 319.23 283.00 330.00 C 279.98 340.77 289.90 364.78 276.00 369.00
C 271.34 370.42 264.33 370.34 259.00 370.00 C 253.67 369.66 244.88 370.80 240.00 370.00 C 235.12 369.20 225.15 372.71 223.00 368.00
C 223.00 368.00 222.41 368.19 222.00 368.00
C 212.96 363.91 219.98 347.34 218.00 339.00 C 216.02 330.66 220.41 315.02 217.00 307.00
C 215.80 324.99 218.60 337.45 217.00 356.00 C 215.40 374.55 236.22 370.99 250.00 371.00 C 263.78 371.01 285.72 374.72 284.00 356.00 C 282.28 337.28 285.29 326.04 284.00 308.00
C 288.83 305.55 295.81 306.37 302.00 306.00 C 308.19 305.63 318.54 306.95 324.00 306.00 C 329.46 305.05 340.49 309.37 342.00 304.00
C 342.00 304.00 341.50 304.00 341.00 304.00
C 336.59 307.26 327.42 303.76 322.00 305.00 C 316.58 306.24 306.93 303.50 302.00 305.00 C 297.07 306.50 285.98 301.78 283.00 306.00 Z"/>
</g>
<g fill="#80A4B1" fill-opacity="1.00" stroke="None">
<path d="
M 217.00 307.00 
C 220.41 315.02 216.02 330.66 218.00 339.00 C 219.98 347.34 212.96 363.91 222.00 368.00
C 217.26 362.58 219.64 354.56 219.00 348.00 C 218.36 341.44 220.08 330.86 219.00 325.00 C 217.92 319.14 222.27 307.85 217.00 305.00
C 217.23 305.16 217.00 306.50 217.00 307.00 Z"/>
</g>
<g fill="#CEE6E3" fill-opacity="1.00" stroke="None">
<path d="
M 384.00 324.00 
C 385.73 320.12 388.01 316.48 389.00 312.00
C 387.82 315.49 385.29 319.97 384.00 324.00 Z"/>
</g>
<g fill="#4C9593" fill-opacity="1.00" stroke="None">
<path d="
M 381.00 335.00 
C 375.64 350.44 366.84 364.93 359.00 379.00
C 361.00 378.07 365.35 379.76 365.00 374.00
C 371.36 373.87 370.83 384.85 376.00 380.00
C 376.00 384.67 376.00 389.33 376.00 394.00
C 373.18 393.94 372.91 398.04 370.00 398.00
C 369.67 392.35 372.22 380.20 364.00 382.00
C 367.67 385.67 363.06 394.78 360.00 400.00
C 367.19 397.58 366.71 402.40 374.00 400.00
C 371.23 403.40 365.50 406.80 369.00 412.00
C 370.40 409.70 372.13 405.24 376.00 406.00
C 370.34 409.84 373.41 412.72 369.00 417.00
C 370.76 417.05 372.07 415.47 374.00 416.00
C 392.37 394.71 405.11 370.53 416.00 345.00
C 415.10 343.33 413.87 347.78 412.00 345.00
C 410.25 347.98 411.23 353.14 406.00 352.00
C 409.48 350.43 405.66 346.55 410.00 346.00
C 408.29 343.30 408.76 343.04 410.00 340.00
C 405.00 344.64 405.35 334.79 400.00 336.00
C 400.91 330.28 396.29 332.18 396.00 336.00
C 397.68 330.05 393.87 326.91 391.00 324.00
C 388.52 328.74 389.88 324.41 388.00 322.00
C 387.62 327.24 382.97 330.89 381.00 335.00 Z"/>
</g>
<g fill="#89AFB6" fill-opacity="1.00" stroke="None">
<path d="
M 368.00 360.00 
C 355.62 385.03 333.70 408.46 312.00 427.00
C 310.12 428.60 307.85 430.28 306.00 432.00
C 294.33 442.90 285.82 445.37 272.75 455.75 C 259.69 466.13 247.70 465.61 233.00 458.00
C 240.93 463.37 249.34 469.43 258.25 464.25 C 267.15 459.06 274.09 456.63 282.23 451.23 C 290.37 445.83 296.26 439.41 305.00 436.00
C 311.81 431.03 316.64 422.46 323.75 417.75 C 330.86 413.04 336.99 405.67 341.92 398.92 C 346.85 392.16 355.08 386.03 359.00 379.00
C 366.84 364.93 375.64 350.44 381.00 335.00
C 381.41 333.82 381.91 333.29 382.00 332.00
C 377.49 341.19 372.57 350.75 368.00 360.00 Z"/>
</g>
<g fill="#CDE0EA" fill-opacity="1.00" stroke="None">
<path d="
M 34.00 347.00 
C 36.63 342.82 46.60 338.55 50.00 343.00
C 50.00 343.00 50.60 342.80 51.00 343.00
C 54.95 344.93 57.00 350.04 61.00 352.00
C 54.99 343.40 40.72 332.83 34.00 347.00 Z"/>
</g>
<g fill="#7498AF" fill-opacity="1.00" stroke="None">
<path d="
M 34.00 347.00 
C 33.61 347.83 33.37 349.08 33.00 350.00
C 31.46 357.84 38.95 362.85 43.25 367.75 C 47.54 372.65 53.86 376.91 57.25 381.75 C 60.64 386.60 70.82 391.01 70.00 397.00
C 69.34 401.81 60.88 405.05 58.70 409.70 C 56.52 414.34 49.55 418.35 45.77 421.77 C 41.99 425.19 37.43 431.30 33.00 434.00
C 32.36 434.39 31.75 434.86 31.00 435.00
C 35.28 437.97 41.80 423.90 47.75 421.75 C 53.71 419.61 55.77 409.29 62.75 405.75 C 69.73 402.22 72.97 392.95 65.08 387.92 C 57.19 382.89 54.75 379.24 49.25 372.75 C 43.76 366.25 38.22 363.10 34.33 355.67 C 30.44 348.24 43.37 340.12 50.00 343.00
C 46.60 338.55 36.63 342.82 34.00 347.00 Z"/>
</g>
<g fill="#C1D8E1" fill-opacity="1.00" stroke="None">
<path d="
M 129.00 418.00 
C 129.00 418.00 129.50 418.00 130.00 418.00
C 137.63 407.09 149.41 398.35 158.75 388.75 C 168.09 379.15 178.13 367.59 189.00 360.00
C 189.20 359.60 189.00 359.00 189.00 359.00
C 190.30 356.34 199.97 346.82 202.00 350.00
C 203.62 352.54 201.80 359.17 203.00 362.00
C 203.00 352.57 202.29 344.20 195.25 351.25 C 188.21 358.30 187.35 359.07 181.75 364.75 C 176.16 370.43 173.56 372.71 168.75 377.75 C 163.94 382.79 159.60 386.39 155.25 391.25 C 150.89 396.10 145.56 399.85 141.75 404.75 C 137.95 409.65 131.34 412.39 129.00 418.00 Z"/>
</g>
<g fill="#8BADB7" fill-opacity="1.00" stroke="None">
<path d="
M 189.00 359.00 
C 193.33 355.97 196.77 350.80 202.00 350.00
C 199.97 346.82 190.30 356.34 189.00 359.00 Z"/>
</g>
<g fill="#CADFEB" fill-opacity="1.00" stroke="None">
<path d="
M 17.00 421.00 
C 18.28 421.71 19.96 424.79 21.00 426.00
C 23.98 428.98 27.57 431.52 30.00 435.00
C 30.00 435.00 30.52 435.09 31.00 435.00
C 31.75 434.86 32.36 434.39 33.00 434.00
C 36.82 430.43 41.20 425.60 44.75 421.75 C 48.30 417.91 54.64 413.46 57.25 409.25 C 59.85 405.03 69.11 401.17 70.00 397.00
C 70.82 391.01 60.64 386.60 57.25 381.75 C 53.86 376.91 47.54 372.65 43.25 367.75 C 38.95 362.85 31.46 357.84 33.00 350.00
C 28.07 359.95 43.23 366.04 47.75 373.25 C 52.28 380.46 64.37 385.89 67.74 393.26 C 71.12 400.63 55.62 407.60 51.25 414.25 C 46.87 420.89 35.99 428.09 31.00 434.00
C 25.52 431.17 22.65 423.61 17.00 421.00 Z"/>
</g>
<g fill="#51889E" fill-opacity="1.00" stroke="None">
<path d="
M 189.00 359.00 
C 189.00 359.00 189.20 359.60 189.00 360.00
C 183.26 371.73 167.80 378.53 160.25 389.25 C 152.70 399.97 138.48 407.30 131.00 418.00
C 140.96 411.66 147.73 400.76 156.75 393.75 C 165.78 386.75 171.65 372.19 184.00 376.00
C 179.45 373.05 185.03 372.46 183.00 368.00
C 186.62 369.92 194.56 362.82 188.00 366.00
C 188.00 362.60 191.29 360.61 192.00 358.00
C 195.86 359.97 195.79 360.75 200.00 359.00
C 199.44 365.25 207.71 374.82 197.00 375.00
C 198.24 378.39 196.61 380.10 195.00 383.00
C 191.86 380.42 188.43 385.26 184.00 386.00
C 185.18 388.32 186.97 386.50 188.00 389.00
C 184.15 390.78 180.88 398.24 181.00 398.00
C 184.86 394.14 190.45 390.12 193.75 385.75 C 197.06 381.39 204.84 377.77 205.00 372.00
C 204.49 369.09 202.87 367.23 203.00 364.00
C 203.02 363.50 203.00 362.50 203.00 362.00
C 201.80 359.17 203.62 352.54 202.00 350.00
C 196.77 350.80 193.33 355.97 189.00 359.00 Z"/>
</g>
<g fill="#83A7B8" fill-opacity="1.00" stroke="None">
<path d="
M 130.00 418.00 
C 130.00 418.00 130.56 418.16 131.00 418.00
C 138.48 407.30 152.70 399.97 160.25 389.25 C 167.80 378.53 183.26 371.73 189.00 360.00
C 178.13 367.59 168.09 379.15 158.75 388.75 C 149.41 398.35 137.63 407.09 130.00 418.00 Z"/>
</g>
<g fill="#D5E7EB" fill-opacity="1.00" stroke="None">
<path d="
M 312.00 427.00 
C 333.70 408.46 355.62 385.03 368.00 360.00
C 350.82 383.57 333.30 405.70 312.00 427.00 Z"/>
</g>
<g fill="#CBE2ED" fill-opacity="1.00" stroke="None">
<path d="
M 205.00 372.00 
C 206.34 379.57 192.36 385.77 187.75 392.75 C 183.14 399.74 172.60 405.45 167.75 412.75 C 162.91 420.06 151.11 425.50 147.00 433.00
C 146.06 435.10 146.23 435.22 147.00 437.00
C 146.08 430.29 159.02 423.81 163.25 418.25 C 167.48 412.68 174.30 406.94 180.25 401.25 C 186.20 395.56 189.33 390.66 197.25 384.25 C 205.17 377.84 206.38 373.69 203.00 364.00
C 202.87 367.23 204.49 369.09 205.00 372.00 Z"/>
</g>
<g fill="#84A6B1" fill-opacity="1.00" stroke="None">
<path d="
M 276.00 369.00 
C 268.21 370.32 256.75 369.36 249.00 369.00 C 241.25 368.64 229.58 371.76 223.00 368.00
C 225.15 372.71 235.12 369.20 240.00 370.00 C 244.88 370.80 253.67 369.66 259.00 370.00 C 264.33 370.34 271.34 370.42 276.00 369.00 Z"/>
</g>
<g fill="#7B9BAC" fill-opacity="1.00" stroke="None">
<path d="
M 181.00 398.00 
C 175.61 403.39 168.72 409.96 163.75 415.75 C 158.78 421.54 150.07 426.14 147.00 433.00
C 151.11 425.50 162.91 420.06 167.75 412.75 C 172.60 405.45 183.14 399.74 187.75 392.75 C 192.36 385.77 206.34 379.57 205.00 372.00
C 204.84 377.77 197.06 381.39 193.75 385.75 C 190.45 390.12 184.86 394.14 181.00 398.00 Z"/>
</g>
<g fill="#488C97" fill-opacity="1.00" stroke="None">
<path d="
M 359.00 379.00 
C 355.08 386.03 346.85 392.16 341.92 398.92 C 336.99 405.67 330.86 413.04 323.75 417.75 C 316.64 422.46 311.81 431.03 305.00 436.00
C 309.28 434.33 311.50 435.54 313.00 431.00
C 314.42 433.60 311.07 438.67 316.00 438.00
C 317.56 441.08 311.73 443.39 317.00 443.00
C 313.15 447.47 321.30 451.84 321.00 457.00
C 321.79 455.01 320.29 451.87 323.00 452.00
C 322.35 457.30 324.12 454.43 327.00 453.00
C 325.93 455.33 326.22 457.08 328.00 459.00
C 322.62 463.18 319.86 465.29 315.00 471.00
C 320.70 467.05 326.51 463.08 332.00 459.00
C 346.26 444.74 360.84 431.24 374.00 416.00
C 372.07 415.47 370.76 417.05 369.00 417.00
C 373.41 412.72 370.34 409.84 376.00 406.00
C 372.13 405.24 370.40 409.70 369.00 412.00
C 365.50 406.80 371.23 403.40 374.00 400.00
C 366.71 402.40 367.19 397.58 360.00 400.00
C 363.06 394.78 367.67 385.67 364.00 382.00
C 372.22 380.20 369.67 392.35 370.00 398.00
C 372.91 398.04 373.18 393.94 376.00 394.00
C 376.00 389.33 376.00 384.67 376.00 380.00
C 370.83 384.85 371.36 373.87 365.00 374.00
C 365.35 379.76 361.00 378.07 359.00 379.00 Z"/>
</g>
<g fill="#A0BCCF" fill-opacity="1.00" stroke="None">
<path d="
M 33.00 434.00 
C 37.43 431.30 41.99 425.19 45.77 421.77 C 49.55 418.35 56.52 414.34 58.70 409.70 C 60.88 405.05 69.34 401.81 70.00 397.00
C 69.11 401.17 59.85 405.03 57.25 409.25 C 54.64 413.46 48.30 417.91 44.75 421.75 C 41.20 425.60 36.82 430.43 33.00 434.00 Z"/>
</g>
<g fill="#4381A0" fill-opacity="1.00" stroke="None">
<path d="
M 303.00 480.00 
C 306.93 477.16 311.08 473.72 315.00 471.00
C 319.86 465.29 322.62 463.18 328.00 459.00
C 326.22 457.08 325.93 455.33 327.00 453.00
C 324.12 454.43 322.35 457.30 323.00 452.00
C 320.29 451.87 321.79 455.01 321.00 457.00
C 321.30 451.84 313.15 447.47 317.00 443.00
C 311.73 443.39 317.56 441.08 316.00 438.00
C 311.07 438.67 314.42 433.60 313.00 431.00
C 311.50 435.54 309.28 434.33 305.00 436.00
C 296.26 439.41 290.37 445.83 282.23 451.23 C 274.09 456.63 267.15 459.06 258.25 464.25 C 249.34 469.43 240.93 463.37 233.00 458.00
C 231.85 457.40 230.91 456.56 230.00 456.00
C 221.84 452.56 215.98 448.08 208.75 442.25 C 201.51 436.43 196.00 434.70 188.75 427.25 C 181.50 419.80 178.30 420.33 170.25 429.25 C 162.20 438.17 172.92 442.76 172.00 453.00 C 171.08 463.24 180.85 467.23 187.77 472.23 C 194.69 477.23 201.41 482.18 208.77 486.23 C 216.13 490.28 223.46 494.37 230.92 498.08 C 238.38 501.79 249.58 508.21 257.92 503.92 C 266.27 499.63 274.13 497.40 281.77 492.77 C 289.41 488.14 295.91 485.12 303.00 480.00 Z"/>
</g>
<g fill="#81A1B4" fill-opacity="1.00" stroke="None">
<path d="
M 30.00 435.00 
C 27.57 431.52 23.98 428.98 21.00 426.00
C 23.43 428.85 26.47 433.27 30.00 435.00 Z"/>
</g>
<g fill="#D0E4EB" fill-opacity="1.00" stroke="None">
<path d="
M 230.00 456.00 
C 230.91 456.56 231.85 457.40 233.00 458.00
C 247.70 465.61 259.69 466.13 272.75 455.75 C 285.82 445.37 294.33 442.90 306.00 432.00
C 293.34 441.23 285.17 445.23 271.68 455.68 C 258.19 466.13 244.64 462.17 230.00 456.00 Z"/>
</g>
<g fill="#BFDBE0" fill-opacity="1.00" stroke="None">
<path d="
M 315.00 471.00 
C 311.08 473.72 306.93 477.16 303.00 480.00
C 313.43 475.60 323.76 467.24 332.00 459.00
C 326.51 463.08 320.70 467.05 315.00 471.00 Z"/>
</g>
</svg>